M48
;DRILL file {KiCad 6.0.0-rc1-unknown-7b10490~66~ubuntu16.04.1} date Wed 31 Oct 2018 23:11:01 CET
;FORMAT={-:-/ absolute / metric / decimal}
FMAT,2
METRIC
T1C0.400
T2C1.000
T3C1.300
T4C1.520
T5C4.300
%
G90
G05
M71
T1
X10.668Y-31.496
X12.573Y-13.843
X12.7Y-32.131
X14.351Y-20.701
X14.605Y-13.843
X16.002Y-35.433
X17.006Y-88.634
X17.272Y-45.72
X17.653Y-18.673
X18.542Y-56.896
X18.542Y-66.675
X19.392Y-60.071
X20.193Y-14.605
X21.082Y-16.51
X22.098Y-22.733
X22.606Y-29.21
T2
X15.24Y-3.81
X15.24Y-6.35
X17.78Y-3.81
X17.78Y-6.35
X20.32Y-3.81
X20.32Y-6.35
X5.08Y-74.93
X5.08Y-77.47
X5.08Y-80.01
X5.08Y-82.55
X5.08Y-85.09
X7.62Y-74.93
X7.62Y-77.47
X7.62Y-80.01
X7.62Y-82.55
X7.62Y-85.09
X16.51Y-95.25
X19.05Y-95.25
X11.43Y-34.29
X11.43Y-36.83
X11.43Y-39.37
X11.43Y-41.91
T3
X68.27Y-17.78
X70.27Y-11.78
X70.27Y-23.78
X82.47Y-11.78
X82.47Y-23.78
X39.06Y-82.55
X41.06Y-76.55
X41.06Y-88.55
X53.26Y-76.55
X53.26Y-88.55
X68.27Y-82.55
X70.27Y-76.55
X70.27Y-88.55
X82.47Y-76.55
X82.47Y-88.55
X39.06Y-17.78
X41.06Y-11.78
X41.06Y-23.78
X53.26Y-11.78
X53.26Y-23.78
X39.06Y-39.37
X41.06Y-33.37
X41.06Y-45.37
X53.26Y-33.37
X53.26Y-45.37
X39.06Y-60.96
X41.06Y-54.96
X41.06Y-66.96
X53.26Y-54.96
X53.26Y-66.96
X68.27Y-39.37
X70.27Y-33.37
X70.27Y-45.37
X82.47Y-33.37
X82.47Y-45.37
X68.27Y-60.96
X70.27Y-54.96
X70.27Y-66.96
X82.47Y-54.96
X82.47Y-66.96
T4
X94.94Y-13.97
X94.94Y-19.05
X94.94Y-59.69
X94.94Y-64.77
X94.94Y-69.85
X94.94Y-74.93
X94.94Y-80.01
X94.94Y-85.09
X94.94Y-29.21
X94.94Y-34.29
X94.94Y-44.45
X94.94Y-49.53
T5
X95.0Y-5.0
X5.0Y-5.0
X95.0Y-95.0
X5.0Y-95.0
T0
M30
