G04 #@! TF.GenerationSoftware,KiCad,Pcbnew,6.0.0-rc1-unknown-7b10490~66~ubuntu16.04.1*
G04 #@! TF.CreationDate,2018-10-31T23:07:41+01:00*
G04 #@! TF.ProjectId,exhaust_control,65786861-7573-4745-9f63-6f6e74726f6c,rev?*
G04 #@! TF.SameCoordinates,Original*
G04 #@! TF.FileFunction,Paste,Top*
G04 #@! TF.FilePolarity,Positive*
%FSLAX46Y46*%
G04 Gerber Fmt 4.6, Leading zero omitted, Abs format (unit mm)*
G04 Created by KiCad (PCBNEW 6.0.0-rc1-unknown-7b10490~66~ubuntu16.04.1) date Wed 31 Oct 2018 23:07:41 CET*
%MOMM*%
%LPD*%
G01*
G04 APERTURE LIST*
%ADD10R,0.450000X0.600000*%
%ADD11R,0.900000X0.800000*%
%ADD12R,0.900000X0.500000*%
%ADD13R,0.500000X0.900000*%
%ADD14R,1.500000X0.600000*%
%ADD15O,2.400000X1.100000*%
%ADD16R,1.100000X2.400000*%
%ADD17O,1.100000X2.400000*%
%ADD18R,0.797560X0.797560*%
%ADD19R,0.750000X0.800000*%
%ADD20R,0.500000X0.600000*%
%ADD21R,1.060000X0.650000*%
%ADD22R,0.600000X0.500000*%
G04 APERTURE END LIST*
D10*
G04 #@! TO.C,D1*
X30170000Y-39590000D03*
X30170000Y-41690000D03*
G04 #@! TD*
D11*
G04 #@! TO.C,Q1*
X27360000Y-40640000D03*
X25360000Y-41590000D03*
X25360000Y-39690000D03*
G04 #@! TD*
D12*
G04 #@! TO.C,R1*
X22550000Y-41390000D03*
X22550000Y-39890000D03*
G04 #@! TD*
G04 #@! TO.C,R2*
X12700000Y-29984000D03*
X12700000Y-31484000D03*
G04 #@! TD*
D13*
G04 #@! TO.C,R3*
X14490000Y-39370000D03*
X15990000Y-39370000D03*
G04 #@! TD*
G04 #@! TO.C,R4*
X15990000Y-36830000D03*
X14490000Y-36830000D03*
G04 #@! TD*
D14*
G04 #@! TO.C,U1*
X16040000Y-54610000D03*
X16040000Y-53340000D03*
X16040000Y-52070000D03*
X16040000Y-50800000D03*
X16040000Y-49530000D03*
X16040000Y-48260000D03*
X16040000Y-46990000D03*
X16040000Y-45720000D03*
X21440000Y-45720000D03*
X21440000Y-46990000D03*
X21440000Y-48260000D03*
X21440000Y-49530000D03*
X21440000Y-50800000D03*
X21440000Y-52070000D03*
X21440000Y-53340000D03*
X21440000Y-54610000D03*
G04 #@! TD*
G04 #@! TO.C,U2*
X24930000Y-45720000D03*
X24930000Y-46990000D03*
X24930000Y-48260000D03*
X24930000Y-49530000D03*
X24930000Y-50800000D03*
X24930000Y-52070000D03*
X24930000Y-53340000D03*
X24930000Y-54610000D03*
X30330000Y-54610000D03*
X30330000Y-53340000D03*
X30330000Y-52070000D03*
X30330000Y-50800000D03*
X30330000Y-49530000D03*
X30330000Y-48260000D03*
X30330000Y-46990000D03*
X30330000Y-45720000D03*
G04 #@! TD*
D15*
G04 #@! TO.C,U3*
X24386000Y-24569000D03*
X24386000Y-22569000D03*
X24386000Y-20569000D03*
X24386000Y-18569000D03*
X24386000Y-16569000D03*
X24386000Y-14569000D03*
D16*
X8636000Y-27559000D03*
D17*
X10636000Y-27559000D03*
X12636000Y-27559000D03*
X14636000Y-27559000D03*
X16636000Y-27559000D03*
X18636000Y-27559000D03*
X20636000Y-27559000D03*
X22636000Y-27559000D03*
X22636000Y-11559000D03*
X20636000Y-11559000D03*
X18636000Y-11559000D03*
X16636000Y-11559000D03*
X14636000Y-11559000D03*
X12636000Y-11559000D03*
X10636000Y-11559000D03*
X8636000Y-11559000D03*
G04 #@! TD*
D14*
G04 #@! TO.C,U5*
X21440000Y-59055000D03*
X21440000Y-60325000D03*
X21440000Y-61595000D03*
X21440000Y-62865000D03*
X21440000Y-64135000D03*
X21440000Y-65405000D03*
X21440000Y-66675000D03*
X21440000Y-67945000D03*
X16040000Y-67945000D03*
X16040000Y-66675000D03*
X16040000Y-65405000D03*
X16040000Y-64135000D03*
X16040000Y-62865000D03*
X16040000Y-61595000D03*
X16040000Y-60325000D03*
X16040000Y-59055000D03*
G04 #@! TD*
D18*
G04 #@! TO.C,D3*
X4274700Y-67310000D03*
X5773300Y-67310000D03*
G04 #@! TD*
G04 #@! TO.C,D4*
X5773300Y-64770000D03*
X4274700Y-64770000D03*
G04 #@! TD*
G04 #@! TO.C,D5*
X4274700Y-62230000D03*
X5773300Y-62230000D03*
G04 #@! TD*
G04 #@! TO.C,D6*
X5773300Y-59690000D03*
X4274700Y-59690000D03*
G04 #@! TD*
G04 #@! TO.C,D7*
X5786000Y-57150000D03*
X4287400Y-57150000D03*
G04 #@! TD*
G04 #@! TO.C,D8*
X4287400Y-54610000D03*
X5786000Y-54610000D03*
G04 #@! TD*
G04 #@! TO.C,D9*
X5773300Y-52070000D03*
X4274700Y-52070000D03*
G04 #@! TD*
G04 #@! TO.C,D10*
X4287400Y-69850000D03*
X5786000Y-69850000D03*
G04 #@! TD*
D13*
G04 #@! TO.C,R5*
X8084000Y-67310000D03*
X9584000Y-67310000D03*
G04 #@! TD*
G04 #@! TO.C,R6*
X9584000Y-64770000D03*
X8084000Y-64770000D03*
G04 #@! TD*
G04 #@! TO.C,R7*
X8084000Y-62230000D03*
X9584000Y-62230000D03*
G04 #@! TD*
G04 #@! TO.C,R8*
X9584000Y-59690000D03*
X8084000Y-59690000D03*
G04 #@! TD*
G04 #@! TO.C,R9*
X8084000Y-57150000D03*
X9584000Y-57150000D03*
G04 #@! TD*
G04 #@! TO.C,R10*
X9584000Y-54610000D03*
X8084000Y-54610000D03*
G04 #@! TD*
G04 #@! TO.C,R11*
X9596000Y-52070000D03*
X8096000Y-52070000D03*
G04 #@! TD*
G04 #@! TO.C,R12*
X8096000Y-69850000D03*
X9596000Y-69850000D03*
G04 #@! TD*
D19*
G04 #@! TO.C,C3*
X19431000Y-88634000D03*
X19431000Y-87134000D03*
G04 #@! TD*
D20*
G04 #@! TO.C,C1*
X24765000Y-87545000D03*
X24765000Y-86445000D03*
G04 #@! TD*
G04 #@! TO.C,C2*
X19431000Y-85767000D03*
X19431000Y-84667000D03*
G04 #@! TD*
D21*
G04 #@! TO.C,U4*
X21125000Y-87310000D03*
X21125000Y-85410000D03*
X23325000Y-85410000D03*
X23325000Y-86360000D03*
X23325000Y-87310000D03*
G04 #@! TD*
D22*
G04 #@! TO.C,C4*
X21251000Y-57658000D03*
X20151000Y-57658000D03*
G04 #@! TD*
G04 #@! TO.C,C5*
X16214000Y-56007000D03*
X17314000Y-56007000D03*
G04 #@! TD*
M02*
