G04 #@! TF.GenerationSoftware,KiCad,Pcbnew,6.0.0-rc1-unknown-7b10490~66~ubuntu16.04.1*
G04 #@! TF.CreationDate,2018-10-31T23:07:41+01:00*
G04 #@! TF.ProjectId,exhaust_control,65786861-7573-4745-9f63-6f6e74726f6c,rev?*
G04 #@! TF.SameCoordinates,Original*
G04 #@! TF.FileFunction,Soldermask,Bot*
G04 #@! TF.FilePolarity,Negative*
%FSLAX46Y46*%
G04 Gerber Fmt 4.6, Leading zero omitted, Abs format (unit mm)*
G04 Created by KiCad (PCBNEW 6.0.0-rc1-unknown-7b10490~66~ubuntu16.04.1) date Wed 31 Oct 2018 23:07:41 CET*
%MOMM*%
%LPD*%
G01*
G04 APERTURE LIST*
%ADD10C,0.100000*%
G04 APERTURE END LIST*
D10*
G36*
X95344959Y-92672577D02*
X95685470Y-92740309D01*
X96113143Y-92917457D01*
X96498038Y-93174636D01*
X96825364Y-93501962D01*
X97082543Y-93886857D01*
X97259691Y-94314530D01*
X97350000Y-94768545D01*
X97350000Y-95231455D01*
X97259691Y-95685470D01*
X97082543Y-96113143D01*
X96825364Y-96498038D01*
X96498038Y-96825364D01*
X96113143Y-97082543D01*
X95685470Y-97259691D01*
X95344959Y-97327423D01*
X95231456Y-97350000D01*
X94768544Y-97350000D01*
X94655041Y-97327423D01*
X94314530Y-97259691D01*
X93886857Y-97082543D01*
X93501962Y-96825364D01*
X93174636Y-96498038D01*
X92917457Y-96113143D01*
X92740309Y-95685470D01*
X92650000Y-95231455D01*
X92650000Y-94768545D01*
X92740309Y-94314530D01*
X92917457Y-93886857D01*
X93174636Y-93501962D01*
X93501962Y-93174636D01*
X93886857Y-92917457D01*
X94314530Y-92740309D01*
X94655041Y-92672577D01*
X94768544Y-92650000D01*
X95231456Y-92650000D01*
X95344959Y-92672577D01*
X95344959Y-92672577D01*
G37*
G36*
X5344959Y-92672577D02*
X5685470Y-92740309D01*
X6113143Y-92917457D01*
X6498038Y-93174636D01*
X6825364Y-93501962D01*
X7082543Y-93886857D01*
X7259691Y-94314530D01*
X7350000Y-94768545D01*
X7350000Y-95231455D01*
X7259691Y-95685470D01*
X7082543Y-96113143D01*
X6825364Y-96498038D01*
X6498038Y-96825364D01*
X6113143Y-97082543D01*
X5685470Y-97259691D01*
X5344959Y-97327423D01*
X5231456Y-97350000D01*
X4768544Y-97350000D01*
X4655041Y-97327423D01*
X4314530Y-97259691D01*
X3886857Y-97082543D01*
X3501962Y-96825364D01*
X3174636Y-96498038D01*
X2917457Y-96113143D01*
X2740309Y-95685470D01*
X2650000Y-95231455D01*
X2650000Y-94768545D01*
X2740309Y-94314530D01*
X2917457Y-93886857D01*
X3174636Y-93501962D01*
X3501962Y-93174636D01*
X3886857Y-92917457D01*
X4314530Y-92740309D01*
X4655041Y-92672577D01*
X4768544Y-92650000D01*
X5231456Y-92650000D01*
X5344959Y-92672577D01*
X5344959Y-92672577D01*
G37*
G36*
X16638707Y-94207596D02*
X16715836Y-94215193D01*
X16847787Y-94255220D01*
X16913763Y-94275233D01*
X17096172Y-94372733D01*
X17256054Y-94503946D01*
X17387267Y-94663828D01*
X17484767Y-94846237D01*
X17484767Y-94846238D01*
X17544807Y-95044164D01*
X17565080Y-95250000D01*
X17544807Y-95455836D01*
X17504780Y-95587787D01*
X17484767Y-95653763D01*
X17387267Y-95836172D01*
X17256054Y-95996054D01*
X17096172Y-96127267D01*
X16913763Y-96224767D01*
X16847787Y-96244780D01*
X16715836Y-96284807D01*
X16638707Y-96292403D01*
X16561580Y-96300000D01*
X16458420Y-96300000D01*
X16381293Y-96292403D01*
X16304164Y-96284807D01*
X16172213Y-96244780D01*
X16106237Y-96224767D01*
X15923828Y-96127267D01*
X15763946Y-95996054D01*
X15632733Y-95836172D01*
X15535233Y-95653763D01*
X15515220Y-95587787D01*
X15475193Y-95455836D01*
X15454920Y-95250000D01*
X15475193Y-95044164D01*
X15535233Y-94846238D01*
X15535233Y-94846237D01*
X15632733Y-94663828D01*
X15763946Y-94503946D01*
X15923828Y-94372733D01*
X16106237Y-94275233D01*
X16172213Y-94255220D01*
X16304164Y-94215193D01*
X16381293Y-94207596D01*
X16458420Y-94200000D01*
X16561580Y-94200000D01*
X16638707Y-94207596D01*
X16638707Y-94207596D01*
G37*
G36*
X20100000Y-96300000D02*
X18000000Y-96300000D01*
X18000000Y-94200000D01*
X20100000Y-94200000D01*
X20100000Y-96300000D01*
X20100000Y-96300000D01*
G37*
G36*
X70383830Y-87104196D02*
X70554250Y-87120981D01*
X70827576Y-87203894D01*
X71079474Y-87338536D01*
X71300265Y-87519735D01*
X71481464Y-87740526D01*
X71616106Y-87992424D01*
X71699019Y-88265750D01*
X71727015Y-88550000D01*
X71699019Y-88834250D01*
X71616106Y-89107576D01*
X71481464Y-89359474D01*
X71300265Y-89580265D01*
X71079474Y-89761464D01*
X70827576Y-89896106D01*
X70554250Y-89979019D01*
X70383830Y-89995804D01*
X70341226Y-90000000D01*
X70198774Y-90000000D01*
X70156170Y-89995804D01*
X69985750Y-89979019D01*
X69712424Y-89896106D01*
X69460526Y-89761464D01*
X69239735Y-89580265D01*
X69058536Y-89359474D01*
X68923894Y-89107576D01*
X68840981Y-88834250D01*
X68812985Y-88550000D01*
X68840981Y-88265750D01*
X68923894Y-87992424D01*
X69058536Y-87740526D01*
X69239735Y-87519735D01*
X69460526Y-87338536D01*
X69712424Y-87203894D01*
X69985750Y-87120981D01*
X70156170Y-87104196D01*
X70198774Y-87100000D01*
X70341226Y-87100000D01*
X70383830Y-87104196D01*
X70383830Y-87104196D01*
G37*
G36*
X82583830Y-87104196D02*
X82754250Y-87120981D01*
X83027576Y-87203894D01*
X83279474Y-87338536D01*
X83500265Y-87519735D01*
X83681464Y-87740526D01*
X83816106Y-87992424D01*
X83899019Y-88265750D01*
X83927015Y-88550000D01*
X83899019Y-88834250D01*
X83816106Y-89107576D01*
X83681464Y-89359474D01*
X83500265Y-89580265D01*
X83279474Y-89761464D01*
X83027576Y-89896106D01*
X82754250Y-89979019D01*
X82583830Y-89995804D01*
X82541226Y-90000000D01*
X82398774Y-90000000D01*
X82356170Y-89995804D01*
X82185750Y-89979019D01*
X81912424Y-89896106D01*
X81660526Y-89761464D01*
X81439735Y-89580265D01*
X81258536Y-89359474D01*
X81123894Y-89107576D01*
X81040981Y-88834250D01*
X81012985Y-88550000D01*
X81040981Y-88265750D01*
X81123894Y-87992424D01*
X81258536Y-87740526D01*
X81439735Y-87519735D01*
X81660526Y-87338536D01*
X81912424Y-87203894D01*
X82185750Y-87120981D01*
X82356170Y-87104196D01*
X82398774Y-87100000D01*
X82541226Y-87100000D01*
X82583830Y-87104196D01*
X82583830Y-87104196D01*
G37*
G36*
X41173830Y-87104196D02*
X41344250Y-87120981D01*
X41617576Y-87203894D01*
X41869474Y-87338536D01*
X42090265Y-87519735D01*
X42271464Y-87740526D01*
X42406106Y-87992424D01*
X42489019Y-88265750D01*
X42517015Y-88550000D01*
X42489019Y-88834250D01*
X42406106Y-89107576D01*
X42271464Y-89359474D01*
X42090265Y-89580265D01*
X41869474Y-89761464D01*
X41617576Y-89896106D01*
X41344250Y-89979019D01*
X41173830Y-89995804D01*
X41131226Y-90000000D01*
X40988774Y-90000000D01*
X40946170Y-89995804D01*
X40775750Y-89979019D01*
X40502424Y-89896106D01*
X40250526Y-89761464D01*
X40029735Y-89580265D01*
X39848536Y-89359474D01*
X39713894Y-89107576D01*
X39630981Y-88834250D01*
X39602985Y-88550000D01*
X39630981Y-88265750D01*
X39713894Y-87992424D01*
X39848536Y-87740526D01*
X40029735Y-87519735D01*
X40250526Y-87338536D01*
X40502424Y-87203894D01*
X40775750Y-87120981D01*
X40946170Y-87104196D01*
X40988774Y-87100000D01*
X41131226Y-87100000D01*
X41173830Y-87104196D01*
X41173830Y-87104196D01*
G37*
G36*
X53373830Y-87104196D02*
X53544250Y-87120981D01*
X53817576Y-87203894D01*
X54069474Y-87338536D01*
X54290265Y-87519735D01*
X54471464Y-87740526D01*
X54606106Y-87992424D01*
X54689019Y-88265750D01*
X54717015Y-88550000D01*
X54689019Y-88834250D01*
X54606106Y-89107576D01*
X54471464Y-89359474D01*
X54290265Y-89580265D01*
X54069474Y-89761464D01*
X53817576Y-89896106D01*
X53544250Y-89979019D01*
X53373830Y-89995804D01*
X53331226Y-90000000D01*
X53188774Y-90000000D01*
X53146170Y-89995804D01*
X52975750Y-89979019D01*
X52702424Y-89896106D01*
X52450526Y-89761464D01*
X52229735Y-89580265D01*
X52048536Y-89359474D01*
X51913894Y-89107576D01*
X51830981Y-88834250D01*
X51802985Y-88550000D01*
X51830981Y-88265750D01*
X51913894Y-87992424D01*
X52048536Y-87740526D01*
X52229735Y-87519735D01*
X52450526Y-87338536D01*
X52702424Y-87203894D01*
X52975750Y-87120981D01*
X53146170Y-87104196D01*
X53188774Y-87100000D01*
X53331226Y-87100000D01*
X53373830Y-87104196D01*
X53373830Y-87104196D01*
G37*
G36*
X95326393Y-83433553D02*
X95435872Y-83455330D01*
X95745252Y-83583479D01*
X96023687Y-83769523D01*
X96260477Y-84006313D01*
X96446521Y-84284748D01*
X96574670Y-84594128D01*
X96640000Y-84922565D01*
X96640000Y-85257435D01*
X96574670Y-85585872D01*
X96446521Y-85895252D01*
X96260477Y-86173687D01*
X96023687Y-86410477D01*
X95745252Y-86596521D01*
X95435872Y-86724670D01*
X95326393Y-86746447D01*
X95107437Y-86790000D01*
X94772563Y-86790000D01*
X94553607Y-86746447D01*
X94444128Y-86724670D01*
X94134748Y-86596521D01*
X93856313Y-86410477D01*
X93619523Y-86173687D01*
X93433479Y-85895252D01*
X93305330Y-85585872D01*
X93240000Y-85257435D01*
X93240000Y-84922565D01*
X93305330Y-84594128D01*
X93433479Y-84284748D01*
X93619523Y-84006313D01*
X93856313Y-83769523D01*
X94134748Y-83583479D01*
X94444128Y-83455330D01*
X94553607Y-83433553D01*
X94772563Y-83390000D01*
X95107437Y-83390000D01*
X95326393Y-83433553D01*
X95326393Y-83433553D01*
G37*
G36*
X8670000Y-86140000D02*
X6570000Y-86140000D01*
X6570000Y-84040000D01*
X8670000Y-84040000D01*
X8670000Y-86140000D01*
X8670000Y-86140000D01*
G37*
G36*
X5208707Y-84047596D02*
X5285836Y-84055193D01*
X5417787Y-84095220D01*
X5483763Y-84115233D01*
X5666172Y-84212733D01*
X5826054Y-84343946D01*
X5957267Y-84503828D01*
X6054767Y-84686237D01*
X6054767Y-84686238D01*
X6114807Y-84884164D01*
X6135080Y-85090000D01*
X6114807Y-85295836D01*
X6074780Y-85427787D01*
X6054767Y-85493763D01*
X5957267Y-85676172D01*
X5826054Y-85836054D01*
X5666172Y-85967267D01*
X5483763Y-86064767D01*
X5417787Y-86084780D01*
X5285836Y-86124807D01*
X5208707Y-86132403D01*
X5131580Y-86140000D01*
X5028420Y-86140000D01*
X4951293Y-86132403D01*
X4874164Y-86124807D01*
X4742213Y-86084780D01*
X4676237Y-86064767D01*
X4493828Y-85967267D01*
X4333946Y-85836054D01*
X4202733Y-85676172D01*
X4105233Y-85493763D01*
X4085220Y-85427787D01*
X4045193Y-85295836D01*
X4024920Y-85090000D01*
X4045193Y-84884164D01*
X4105233Y-84686238D01*
X4105233Y-84686237D01*
X4202733Y-84503828D01*
X4333946Y-84343946D01*
X4493828Y-84212733D01*
X4676237Y-84115233D01*
X4742213Y-84095220D01*
X4874164Y-84055193D01*
X4951293Y-84047596D01*
X5028420Y-84040000D01*
X5131580Y-84040000D01*
X5208707Y-84047596D01*
X5208707Y-84047596D01*
G37*
G36*
X69720000Y-84000000D02*
X66820000Y-84000000D01*
X66820000Y-81100000D01*
X69720000Y-81100000D01*
X69720000Y-84000000D01*
X69720000Y-84000000D01*
G37*
G36*
X40510000Y-84000000D02*
X37610000Y-84000000D01*
X37610000Y-81100000D01*
X40510000Y-81100000D01*
X40510000Y-84000000D01*
X40510000Y-84000000D01*
G37*
G36*
X7748707Y-81507597D02*
X7825836Y-81515193D01*
X7957787Y-81555220D01*
X8023763Y-81575233D01*
X8206172Y-81672733D01*
X8366054Y-81803946D01*
X8497267Y-81963828D01*
X8594767Y-82146237D01*
X8594767Y-82146238D01*
X8654807Y-82344164D01*
X8675080Y-82550000D01*
X8654807Y-82755836D01*
X8614780Y-82887787D01*
X8594767Y-82953763D01*
X8497267Y-83136172D01*
X8366054Y-83296054D01*
X8206172Y-83427267D01*
X8023763Y-83524767D01*
X7957787Y-83544780D01*
X7825836Y-83584807D01*
X7748707Y-83592404D01*
X7671580Y-83600000D01*
X7568420Y-83600000D01*
X7491293Y-83592404D01*
X7414164Y-83584807D01*
X7282213Y-83544780D01*
X7216237Y-83524767D01*
X7033828Y-83427267D01*
X6873946Y-83296054D01*
X6742733Y-83136172D01*
X6645233Y-82953763D01*
X6625220Y-82887787D01*
X6585193Y-82755836D01*
X6564920Y-82550000D01*
X6585193Y-82344164D01*
X6645233Y-82146238D01*
X6645233Y-82146237D01*
X6742733Y-81963828D01*
X6873946Y-81803946D01*
X7033828Y-81672733D01*
X7216237Y-81575233D01*
X7282213Y-81555220D01*
X7414164Y-81515193D01*
X7491293Y-81507597D01*
X7568420Y-81500000D01*
X7671580Y-81500000D01*
X7748707Y-81507597D01*
X7748707Y-81507597D01*
G37*
G36*
X5208707Y-81507597D02*
X5285836Y-81515193D01*
X5417787Y-81555220D01*
X5483763Y-81575233D01*
X5666172Y-81672733D01*
X5826054Y-81803946D01*
X5957267Y-81963828D01*
X6054767Y-82146237D01*
X6054767Y-82146238D01*
X6114807Y-82344164D01*
X6135080Y-82550000D01*
X6114807Y-82755836D01*
X6074780Y-82887787D01*
X6054767Y-82953763D01*
X5957267Y-83136172D01*
X5826054Y-83296054D01*
X5666172Y-83427267D01*
X5483763Y-83524767D01*
X5417787Y-83544780D01*
X5285836Y-83584807D01*
X5208707Y-83592404D01*
X5131580Y-83600000D01*
X5028420Y-83600000D01*
X4951293Y-83592404D01*
X4874164Y-83584807D01*
X4742213Y-83544780D01*
X4676237Y-83524767D01*
X4493828Y-83427267D01*
X4333946Y-83296054D01*
X4202733Y-83136172D01*
X4105233Y-82953763D01*
X4085220Y-82887787D01*
X4045193Y-82755836D01*
X4024920Y-82550000D01*
X4045193Y-82344164D01*
X4105233Y-82146238D01*
X4105233Y-82146237D01*
X4202733Y-81963828D01*
X4333946Y-81803946D01*
X4493828Y-81672733D01*
X4676237Y-81575233D01*
X4742213Y-81555220D01*
X4874164Y-81515193D01*
X4951293Y-81507597D01*
X5028420Y-81500000D01*
X5131580Y-81500000D01*
X5208707Y-81507597D01*
X5208707Y-81507597D01*
G37*
G36*
X95326393Y-78353553D02*
X95435872Y-78375330D01*
X95745252Y-78503479D01*
X96023687Y-78689523D01*
X96260477Y-78926313D01*
X96446521Y-79204748D01*
X96574670Y-79514128D01*
X96640000Y-79842565D01*
X96640000Y-80177435D01*
X96574670Y-80505872D01*
X96446521Y-80815252D01*
X96260477Y-81093687D01*
X96023687Y-81330477D01*
X95745252Y-81516521D01*
X95435872Y-81644670D01*
X95326393Y-81666447D01*
X95107437Y-81710000D01*
X94772563Y-81710000D01*
X94553607Y-81666447D01*
X94444128Y-81644670D01*
X94134748Y-81516521D01*
X93856313Y-81330477D01*
X93619523Y-81093687D01*
X93433479Y-80815252D01*
X93305330Y-80505872D01*
X93240000Y-80177435D01*
X93240000Y-79842565D01*
X93305330Y-79514128D01*
X93433479Y-79204748D01*
X93619523Y-78926313D01*
X93856313Y-78689523D01*
X94134748Y-78503479D01*
X94444128Y-78375330D01*
X94553607Y-78353553D01*
X94772563Y-78310000D01*
X95107437Y-78310000D01*
X95326393Y-78353553D01*
X95326393Y-78353553D01*
G37*
G36*
X5208707Y-78967597D02*
X5285836Y-78975193D01*
X5417787Y-79015220D01*
X5483763Y-79035233D01*
X5666172Y-79132733D01*
X5826054Y-79263946D01*
X5957267Y-79423828D01*
X6054767Y-79606237D01*
X6054767Y-79606238D01*
X6114807Y-79804164D01*
X6135080Y-80010000D01*
X6114807Y-80215836D01*
X6074780Y-80347787D01*
X6054767Y-80413763D01*
X5957267Y-80596172D01*
X5826054Y-80756054D01*
X5666172Y-80887267D01*
X5483763Y-80984767D01*
X5417787Y-81004780D01*
X5285836Y-81044807D01*
X5208707Y-81052404D01*
X5131580Y-81060000D01*
X5028420Y-81060000D01*
X4951293Y-81052404D01*
X4874164Y-81044807D01*
X4742213Y-81004780D01*
X4676237Y-80984767D01*
X4493828Y-80887267D01*
X4333946Y-80756054D01*
X4202733Y-80596172D01*
X4105233Y-80413763D01*
X4085220Y-80347787D01*
X4045193Y-80215836D01*
X4024920Y-80010000D01*
X4045193Y-79804164D01*
X4105233Y-79606238D01*
X4105233Y-79606237D01*
X4202733Y-79423828D01*
X4333946Y-79263946D01*
X4493828Y-79132733D01*
X4676237Y-79035233D01*
X4742213Y-79015220D01*
X4874164Y-78975193D01*
X4951293Y-78967597D01*
X5028420Y-78960000D01*
X5131580Y-78960000D01*
X5208707Y-78967597D01*
X5208707Y-78967597D01*
G37*
G36*
X7748707Y-78967597D02*
X7825836Y-78975193D01*
X7957787Y-79015220D01*
X8023763Y-79035233D01*
X8206172Y-79132733D01*
X8366054Y-79263946D01*
X8497267Y-79423828D01*
X8594767Y-79606237D01*
X8594767Y-79606238D01*
X8654807Y-79804164D01*
X8675080Y-80010000D01*
X8654807Y-80215836D01*
X8614780Y-80347787D01*
X8594767Y-80413763D01*
X8497267Y-80596172D01*
X8366054Y-80756054D01*
X8206172Y-80887267D01*
X8023763Y-80984767D01*
X7957787Y-81004780D01*
X7825836Y-81044807D01*
X7748707Y-81052404D01*
X7671580Y-81060000D01*
X7568420Y-81060000D01*
X7491293Y-81052404D01*
X7414164Y-81044807D01*
X7282213Y-81004780D01*
X7216237Y-80984767D01*
X7033828Y-80887267D01*
X6873946Y-80756054D01*
X6742733Y-80596172D01*
X6645233Y-80413763D01*
X6625220Y-80347787D01*
X6585193Y-80215836D01*
X6564920Y-80010000D01*
X6585193Y-79804164D01*
X6645233Y-79606238D01*
X6645233Y-79606237D01*
X6742733Y-79423828D01*
X6873946Y-79263946D01*
X7033828Y-79132733D01*
X7216237Y-79035233D01*
X7282213Y-79015220D01*
X7414164Y-78975193D01*
X7491293Y-78967597D01*
X7568420Y-78960000D01*
X7671580Y-78960000D01*
X7748707Y-78967597D01*
X7748707Y-78967597D01*
G37*
G36*
X7748707Y-76427597D02*
X7825836Y-76435193D01*
X7957787Y-76475220D01*
X8023763Y-76495233D01*
X8206172Y-76592733D01*
X8366054Y-76723946D01*
X8497267Y-76883828D01*
X8594767Y-77066237D01*
X8594767Y-77066238D01*
X8654807Y-77264164D01*
X8675080Y-77470000D01*
X8654807Y-77675836D01*
X8628833Y-77761462D01*
X8594767Y-77873763D01*
X8497267Y-78056172D01*
X8366054Y-78216054D01*
X8206172Y-78347267D01*
X8023763Y-78444767D01*
X7957787Y-78464780D01*
X7825836Y-78504807D01*
X7748707Y-78512404D01*
X7671580Y-78520000D01*
X7568420Y-78520000D01*
X7491293Y-78512404D01*
X7414164Y-78504807D01*
X7282213Y-78464780D01*
X7216237Y-78444767D01*
X7033828Y-78347267D01*
X6873946Y-78216054D01*
X6742733Y-78056172D01*
X6645233Y-77873763D01*
X6611167Y-77761462D01*
X6585193Y-77675836D01*
X6564920Y-77470000D01*
X6585193Y-77264164D01*
X6645233Y-77066238D01*
X6645233Y-77066237D01*
X6742733Y-76883828D01*
X6873946Y-76723946D01*
X7033828Y-76592733D01*
X7216237Y-76495233D01*
X7282213Y-76475220D01*
X7414164Y-76435193D01*
X7491293Y-76427597D01*
X7568420Y-76420000D01*
X7671580Y-76420000D01*
X7748707Y-76427597D01*
X7748707Y-76427597D01*
G37*
G36*
X5208707Y-76427597D02*
X5285836Y-76435193D01*
X5417787Y-76475220D01*
X5483763Y-76495233D01*
X5666172Y-76592733D01*
X5826054Y-76723946D01*
X5957267Y-76883828D01*
X6054767Y-77066237D01*
X6054767Y-77066238D01*
X6114807Y-77264164D01*
X6135080Y-77470000D01*
X6114807Y-77675836D01*
X6088833Y-77761462D01*
X6054767Y-77873763D01*
X5957267Y-78056172D01*
X5826054Y-78216054D01*
X5666172Y-78347267D01*
X5483763Y-78444767D01*
X5417787Y-78464780D01*
X5285836Y-78504807D01*
X5208707Y-78512404D01*
X5131580Y-78520000D01*
X5028420Y-78520000D01*
X4951293Y-78512404D01*
X4874164Y-78504807D01*
X4742213Y-78464780D01*
X4676237Y-78444767D01*
X4493828Y-78347267D01*
X4333946Y-78216054D01*
X4202733Y-78056172D01*
X4105233Y-77873763D01*
X4071167Y-77761462D01*
X4045193Y-77675836D01*
X4024920Y-77470000D01*
X4045193Y-77264164D01*
X4105233Y-77066238D01*
X4105233Y-77066237D01*
X4202733Y-76883828D01*
X4333946Y-76723946D01*
X4493828Y-76592733D01*
X4676237Y-76495233D01*
X4742213Y-76475220D01*
X4874164Y-76435193D01*
X4951293Y-76427597D01*
X5028420Y-76420000D01*
X5131580Y-76420000D01*
X5208707Y-76427597D01*
X5208707Y-76427597D01*
G37*
G36*
X70383830Y-75104196D02*
X70554250Y-75120981D01*
X70827576Y-75203894D01*
X71079474Y-75338536D01*
X71300265Y-75519735D01*
X71481464Y-75740526D01*
X71616106Y-75992424D01*
X71699019Y-76265750D01*
X71727015Y-76550000D01*
X71699019Y-76834250D01*
X71616106Y-77107576D01*
X71481464Y-77359474D01*
X71300265Y-77580265D01*
X71079474Y-77761464D01*
X70827576Y-77896106D01*
X70554250Y-77979019D01*
X70383830Y-77995804D01*
X70341226Y-78000000D01*
X70198774Y-78000000D01*
X70156170Y-77995804D01*
X69985750Y-77979019D01*
X69712424Y-77896106D01*
X69460526Y-77761464D01*
X69239735Y-77580265D01*
X69058536Y-77359474D01*
X68923894Y-77107576D01*
X68840981Y-76834250D01*
X68812985Y-76550000D01*
X68840981Y-76265750D01*
X68923894Y-75992424D01*
X69058536Y-75740526D01*
X69239735Y-75519735D01*
X69460526Y-75338536D01*
X69712424Y-75203894D01*
X69985750Y-75120981D01*
X70156170Y-75104196D01*
X70198774Y-75100000D01*
X70341226Y-75100000D01*
X70383830Y-75104196D01*
X70383830Y-75104196D01*
G37*
G36*
X82583830Y-75104196D02*
X82754250Y-75120981D01*
X83027576Y-75203894D01*
X83279474Y-75338536D01*
X83500265Y-75519735D01*
X83681464Y-75740526D01*
X83816106Y-75992424D01*
X83899019Y-76265750D01*
X83927015Y-76550000D01*
X83899019Y-76834250D01*
X83816106Y-77107576D01*
X83681464Y-77359474D01*
X83500265Y-77580265D01*
X83279474Y-77761464D01*
X83027576Y-77896106D01*
X82754250Y-77979019D01*
X82583830Y-77995804D01*
X82541226Y-78000000D01*
X82398774Y-78000000D01*
X82356170Y-77995804D01*
X82185750Y-77979019D01*
X81912424Y-77896106D01*
X81660526Y-77761464D01*
X81439735Y-77580265D01*
X81258536Y-77359474D01*
X81123894Y-77107576D01*
X81040981Y-76834250D01*
X81012985Y-76550000D01*
X81040981Y-76265750D01*
X81123894Y-75992424D01*
X81258536Y-75740526D01*
X81439735Y-75519735D01*
X81660526Y-75338536D01*
X81912424Y-75203894D01*
X82185750Y-75120981D01*
X82356170Y-75104196D01*
X82398774Y-75100000D01*
X82541226Y-75100000D01*
X82583830Y-75104196D01*
X82583830Y-75104196D01*
G37*
G36*
X53373830Y-75104196D02*
X53544250Y-75120981D01*
X53817576Y-75203894D01*
X54069474Y-75338536D01*
X54290265Y-75519735D01*
X54471464Y-75740526D01*
X54606106Y-75992424D01*
X54689019Y-76265750D01*
X54717015Y-76550000D01*
X54689019Y-76834250D01*
X54606106Y-77107576D01*
X54471464Y-77359474D01*
X54290265Y-77580265D01*
X54069474Y-77761464D01*
X53817576Y-77896106D01*
X53544250Y-77979019D01*
X53373830Y-77995804D01*
X53331226Y-78000000D01*
X53188774Y-78000000D01*
X53146170Y-77995804D01*
X52975750Y-77979019D01*
X52702424Y-77896106D01*
X52450526Y-77761464D01*
X52229735Y-77580265D01*
X52048536Y-77359474D01*
X51913894Y-77107576D01*
X51830981Y-76834250D01*
X51802985Y-76550000D01*
X51830981Y-76265750D01*
X51913894Y-75992424D01*
X52048536Y-75740526D01*
X52229735Y-75519735D01*
X52450526Y-75338536D01*
X52702424Y-75203894D01*
X52975750Y-75120981D01*
X53146170Y-75104196D01*
X53188774Y-75100000D01*
X53331226Y-75100000D01*
X53373830Y-75104196D01*
X53373830Y-75104196D01*
G37*
G36*
X41173830Y-75104196D02*
X41344250Y-75120981D01*
X41617576Y-75203894D01*
X41869474Y-75338536D01*
X42090265Y-75519735D01*
X42271464Y-75740526D01*
X42406106Y-75992424D01*
X42489019Y-76265750D01*
X42517015Y-76550000D01*
X42489019Y-76834250D01*
X42406106Y-77107576D01*
X42271464Y-77359474D01*
X42090265Y-77580265D01*
X41869474Y-77761464D01*
X41617576Y-77896106D01*
X41344250Y-77979019D01*
X41173830Y-77995804D01*
X41131226Y-78000000D01*
X40988774Y-78000000D01*
X40946170Y-77995804D01*
X40775750Y-77979019D01*
X40502424Y-77896106D01*
X40250526Y-77761464D01*
X40029735Y-77580265D01*
X39848536Y-77359474D01*
X39713894Y-77107576D01*
X39630981Y-76834250D01*
X39602985Y-76550000D01*
X39630981Y-76265750D01*
X39713894Y-75992424D01*
X39848536Y-75740526D01*
X40029735Y-75519735D01*
X40250526Y-75338536D01*
X40502424Y-75203894D01*
X40775750Y-75120981D01*
X40946170Y-75104196D01*
X40988774Y-75100000D01*
X41131226Y-75100000D01*
X41173830Y-75104196D01*
X41173830Y-75104196D01*
G37*
G36*
X95326393Y-73273553D02*
X95435872Y-73295330D01*
X95745252Y-73423479D01*
X96023687Y-73609523D01*
X96260477Y-73846313D01*
X96446521Y-74124748D01*
X96537267Y-74343829D01*
X96574670Y-74434129D01*
X96640000Y-74762563D01*
X96640000Y-75097437D01*
X96632362Y-75135834D01*
X96574670Y-75425872D01*
X96446521Y-75735252D01*
X96260477Y-76013687D01*
X96023687Y-76250477D01*
X95745252Y-76436521D01*
X95435872Y-76564670D01*
X95326393Y-76586447D01*
X95107437Y-76630000D01*
X94772563Y-76630000D01*
X94553607Y-76586447D01*
X94444128Y-76564670D01*
X94134748Y-76436521D01*
X93856313Y-76250477D01*
X93619523Y-76013687D01*
X93433479Y-75735252D01*
X93305330Y-75425872D01*
X93247638Y-75135834D01*
X93240000Y-75097437D01*
X93240000Y-74762563D01*
X93305330Y-74434129D01*
X93342733Y-74343829D01*
X93433479Y-74124748D01*
X93619523Y-73846313D01*
X93856313Y-73609523D01*
X94134748Y-73423479D01*
X94444128Y-73295330D01*
X94553607Y-73273553D01*
X94772563Y-73230000D01*
X95107437Y-73230000D01*
X95326393Y-73273553D01*
X95326393Y-73273553D01*
G37*
G36*
X7748707Y-73887597D02*
X7825836Y-73895193D01*
X7957787Y-73935220D01*
X8023763Y-73955233D01*
X8206172Y-74052733D01*
X8366054Y-74183946D01*
X8497267Y-74343828D01*
X8594767Y-74526237D01*
X8594767Y-74526238D01*
X8654807Y-74724164D01*
X8675080Y-74930000D01*
X8654807Y-75135836D01*
X8614780Y-75267787D01*
X8594767Y-75333763D01*
X8497267Y-75516172D01*
X8366054Y-75676054D01*
X8206172Y-75807267D01*
X8023763Y-75904767D01*
X7957787Y-75924780D01*
X7825836Y-75964807D01*
X7748707Y-75972404D01*
X7671580Y-75980000D01*
X7568420Y-75980000D01*
X7491293Y-75972404D01*
X7414164Y-75964807D01*
X7282213Y-75924780D01*
X7216237Y-75904767D01*
X7033828Y-75807267D01*
X6873946Y-75676054D01*
X6742733Y-75516172D01*
X6645233Y-75333763D01*
X6625220Y-75267787D01*
X6585193Y-75135836D01*
X6564920Y-74930000D01*
X6585193Y-74724164D01*
X6645233Y-74526238D01*
X6645233Y-74526237D01*
X6742733Y-74343828D01*
X6873946Y-74183946D01*
X7033828Y-74052733D01*
X7216237Y-73955233D01*
X7282213Y-73935220D01*
X7414164Y-73895193D01*
X7491293Y-73887597D01*
X7568420Y-73880000D01*
X7671580Y-73880000D01*
X7748707Y-73887597D01*
X7748707Y-73887597D01*
G37*
G36*
X5208707Y-73887597D02*
X5285836Y-73895193D01*
X5417787Y-73935220D01*
X5483763Y-73955233D01*
X5666172Y-74052733D01*
X5826054Y-74183946D01*
X5957267Y-74343828D01*
X6054767Y-74526237D01*
X6054767Y-74526238D01*
X6114807Y-74724164D01*
X6135080Y-74930000D01*
X6114807Y-75135836D01*
X6074780Y-75267787D01*
X6054767Y-75333763D01*
X5957267Y-75516172D01*
X5826054Y-75676054D01*
X5666172Y-75807267D01*
X5483763Y-75904767D01*
X5417787Y-75924780D01*
X5285836Y-75964807D01*
X5208707Y-75972404D01*
X5131580Y-75980000D01*
X5028420Y-75980000D01*
X4951293Y-75972404D01*
X4874164Y-75964807D01*
X4742213Y-75924780D01*
X4676237Y-75904767D01*
X4493828Y-75807267D01*
X4333946Y-75676054D01*
X4202733Y-75516172D01*
X4105233Y-75333763D01*
X4085220Y-75267787D01*
X4045193Y-75135836D01*
X4024920Y-74930000D01*
X4045193Y-74724164D01*
X4105233Y-74526238D01*
X4105233Y-74526237D01*
X4202733Y-74343828D01*
X4333946Y-74183946D01*
X4493828Y-74052733D01*
X4676237Y-73955233D01*
X4742213Y-73935220D01*
X4874164Y-73895193D01*
X4951293Y-73887597D01*
X5028420Y-73880000D01*
X5131580Y-73880000D01*
X5208707Y-73887597D01*
X5208707Y-73887597D01*
G37*
G36*
X95326393Y-68193553D02*
X95435872Y-68215330D01*
X95745252Y-68343479D01*
X96023687Y-68529523D01*
X96260477Y-68766313D01*
X96446521Y-69044748D01*
X96574670Y-69354128D01*
X96640000Y-69682565D01*
X96640000Y-70017435D01*
X96574670Y-70345872D01*
X96446521Y-70655252D01*
X96260477Y-70933687D01*
X96023687Y-71170477D01*
X95745252Y-71356521D01*
X95435872Y-71484670D01*
X95326393Y-71506447D01*
X95107437Y-71550000D01*
X94772563Y-71550000D01*
X94553607Y-71506447D01*
X94444128Y-71484670D01*
X94134748Y-71356521D01*
X93856313Y-71170477D01*
X93619523Y-70933687D01*
X93433479Y-70655252D01*
X93305330Y-70345872D01*
X93240000Y-70017435D01*
X93240000Y-69682565D01*
X93305330Y-69354128D01*
X93433479Y-69044748D01*
X93619523Y-68766313D01*
X93856313Y-68529523D01*
X94134748Y-68343479D01*
X94444128Y-68215330D01*
X94553607Y-68193553D01*
X94772563Y-68150000D01*
X95107437Y-68150000D01*
X95326393Y-68193553D01*
X95326393Y-68193553D01*
G37*
G36*
X41173830Y-65514196D02*
X41344250Y-65530981D01*
X41617576Y-65613894D01*
X41869474Y-65748536D01*
X42090265Y-65929735D01*
X42271464Y-66150526D01*
X42406106Y-66402424D01*
X42489019Y-66675750D01*
X42517015Y-66960000D01*
X42489019Y-67244250D01*
X42406106Y-67517576D01*
X42271464Y-67769474D01*
X42090265Y-67990265D01*
X41869474Y-68171464D01*
X41617576Y-68306106D01*
X41344250Y-68389019D01*
X41173830Y-68405804D01*
X41131226Y-68410000D01*
X40988774Y-68410000D01*
X40946170Y-68405804D01*
X40775750Y-68389019D01*
X40502424Y-68306106D01*
X40250526Y-68171464D01*
X40029735Y-67990265D01*
X39848536Y-67769474D01*
X39713894Y-67517576D01*
X39630981Y-67244250D01*
X39602985Y-66960000D01*
X39630981Y-66675750D01*
X39713894Y-66402424D01*
X39848536Y-66150526D01*
X40029735Y-65929735D01*
X40250526Y-65748536D01*
X40502424Y-65613894D01*
X40775750Y-65530981D01*
X40946170Y-65514196D01*
X40988774Y-65510000D01*
X41131226Y-65510000D01*
X41173830Y-65514196D01*
X41173830Y-65514196D01*
G37*
G36*
X82583830Y-65514196D02*
X82754250Y-65530981D01*
X83027576Y-65613894D01*
X83279474Y-65748536D01*
X83500265Y-65929735D01*
X83681464Y-66150526D01*
X83816106Y-66402424D01*
X83899019Y-66675750D01*
X83927015Y-66960000D01*
X83899019Y-67244250D01*
X83816106Y-67517576D01*
X83681464Y-67769474D01*
X83500265Y-67990265D01*
X83279474Y-68171464D01*
X83027576Y-68306106D01*
X82754250Y-68389019D01*
X82583830Y-68405804D01*
X82541226Y-68410000D01*
X82398774Y-68410000D01*
X82356170Y-68405804D01*
X82185750Y-68389019D01*
X81912424Y-68306106D01*
X81660526Y-68171464D01*
X81439735Y-67990265D01*
X81258536Y-67769474D01*
X81123894Y-67517576D01*
X81040981Y-67244250D01*
X81012985Y-66960000D01*
X81040981Y-66675750D01*
X81123894Y-66402424D01*
X81258536Y-66150526D01*
X81439735Y-65929735D01*
X81660526Y-65748536D01*
X81912424Y-65613894D01*
X82185750Y-65530981D01*
X82356170Y-65514196D01*
X82398774Y-65510000D01*
X82541226Y-65510000D01*
X82583830Y-65514196D01*
X82583830Y-65514196D01*
G37*
G36*
X70383830Y-65514196D02*
X70554250Y-65530981D01*
X70827576Y-65613894D01*
X71079474Y-65748536D01*
X71300265Y-65929735D01*
X71481464Y-66150526D01*
X71616106Y-66402424D01*
X71699019Y-66675750D01*
X71727015Y-66960000D01*
X71699019Y-67244250D01*
X71616106Y-67517576D01*
X71481464Y-67769474D01*
X71300265Y-67990265D01*
X71079474Y-68171464D01*
X70827576Y-68306106D01*
X70554250Y-68389019D01*
X70383830Y-68405804D01*
X70341226Y-68410000D01*
X70198774Y-68410000D01*
X70156170Y-68405804D01*
X69985750Y-68389019D01*
X69712424Y-68306106D01*
X69460526Y-68171464D01*
X69239735Y-67990265D01*
X69058536Y-67769474D01*
X68923894Y-67517576D01*
X68840981Y-67244250D01*
X68812985Y-66960000D01*
X68840981Y-66675750D01*
X68923894Y-66402424D01*
X69058536Y-66150526D01*
X69239735Y-65929735D01*
X69460526Y-65748536D01*
X69712424Y-65613894D01*
X69985750Y-65530981D01*
X70156170Y-65514196D01*
X70198774Y-65510000D01*
X70341226Y-65510000D01*
X70383830Y-65514196D01*
X70383830Y-65514196D01*
G37*
G36*
X53373830Y-65514196D02*
X53544250Y-65530981D01*
X53817576Y-65613894D01*
X54069474Y-65748536D01*
X54290265Y-65929735D01*
X54471464Y-66150526D01*
X54606106Y-66402424D01*
X54689019Y-66675750D01*
X54717015Y-66960000D01*
X54689019Y-67244250D01*
X54606106Y-67517576D01*
X54471464Y-67769474D01*
X54290265Y-67990265D01*
X54069474Y-68171464D01*
X53817576Y-68306106D01*
X53544250Y-68389019D01*
X53373830Y-68405804D01*
X53331226Y-68410000D01*
X53188774Y-68410000D01*
X53146170Y-68405804D01*
X52975750Y-68389019D01*
X52702424Y-68306106D01*
X52450526Y-68171464D01*
X52229735Y-67990265D01*
X52048536Y-67769474D01*
X51913894Y-67517576D01*
X51830981Y-67244250D01*
X51802985Y-66960000D01*
X51830981Y-66675750D01*
X51913894Y-66402424D01*
X52048536Y-66150526D01*
X52229735Y-65929735D01*
X52450526Y-65748536D01*
X52702424Y-65613894D01*
X52975750Y-65530981D01*
X53146170Y-65514196D01*
X53188774Y-65510000D01*
X53331226Y-65510000D01*
X53373830Y-65514196D01*
X53373830Y-65514196D01*
G37*
G36*
X95326393Y-63113553D02*
X95435872Y-63135330D01*
X95745252Y-63263479D01*
X96023687Y-63449523D01*
X96260477Y-63686313D01*
X96446521Y-63964748D01*
X96574670Y-64274128D01*
X96640000Y-64602565D01*
X96640000Y-64937435D01*
X96574670Y-65265872D01*
X96446521Y-65575252D01*
X96260477Y-65853687D01*
X96023687Y-66090477D01*
X95745252Y-66276521D01*
X95435872Y-66404670D01*
X95326393Y-66426447D01*
X95107437Y-66470000D01*
X94772563Y-66470000D01*
X94553607Y-66426447D01*
X94444128Y-66404670D01*
X94134748Y-66276521D01*
X93856313Y-66090477D01*
X93619523Y-65853687D01*
X93433479Y-65575252D01*
X93305330Y-65265872D01*
X93240000Y-64937435D01*
X93240000Y-64602565D01*
X93305330Y-64274128D01*
X93433479Y-63964748D01*
X93619523Y-63686313D01*
X93856313Y-63449523D01*
X94134748Y-63263479D01*
X94444128Y-63135330D01*
X94553607Y-63113553D01*
X94772563Y-63070000D01*
X95107437Y-63070000D01*
X95326393Y-63113553D01*
X95326393Y-63113553D01*
G37*
G36*
X69720000Y-62410000D02*
X66820000Y-62410000D01*
X66820000Y-59510000D01*
X69720000Y-59510000D01*
X69720000Y-62410000D01*
X69720000Y-62410000D01*
G37*
G36*
X40510000Y-62410000D02*
X37610000Y-62410000D01*
X37610000Y-59510000D01*
X40510000Y-59510000D01*
X40510000Y-62410000D01*
X40510000Y-62410000D01*
G37*
G36*
X96640000Y-61390000D02*
X93240000Y-61390000D01*
X93240000Y-57990000D01*
X96640000Y-57990000D01*
X96640000Y-61390000D01*
X96640000Y-61390000D01*
G37*
G36*
X53373830Y-53514196D02*
X53544250Y-53530981D01*
X53817576Y-53613894D01*
X54069474Y-53748536D01*
X54290265Y-53929735D01*
X54471464Y-54150526D01*
X54606106Y-54402424D01*
X54689019Y-54675750D01*
X54717015Y-54960000D01*
X54689019Y-55244250D01*
X54606106Y-55517576D01*
X54471464Y-55769474D01*
X54290265Y-55990265D01*
X54069474Y-56171464D01*
X53817576Y-56306106D01*
X53544250Y-56389019D01*
X53373830Y-56405804D01*
X53331226Y-56410000D01*
X53188774Y-56410000D01*
X53146170Y-56405804D01*
X52975750Y-56389019D01*
X52702424Y-56306106D01*
X52450526Y-56171464D01*
X52229735Y-55990265D01*
X52048536Y-55769474D01*
X51913894Y-55517576D01*
X51830981Y-55244250D01*
X51802985Y-54960000D01*
X51830981Y-54675750D01*
X51913894Y-54402424D01*
X52048536Y-54150526D01*
X52229735Y-53929735D01*
X52450526Y-53748536D01*
X52702424Y-53613894D01*
X52975750Y-53530981D01*
X53146170Y-53514196D01*
X53188774Y-53510000D01*
X53331226Y-53510000D01*
X53373830Y-53514196D01*
X53373830Y-53514196D01*
G37*
G36*
X41173830Y-53514196D02*
X41344250Y-53530981D01*
X41617576Y-53613894D01*
X41869474Y-53748536D01*
X42090265Y-53929735D01*
X42271464Y-54150526D01*
X42406106Y-54402424D01*
X42489019Y-54675750D01*
X42517015Y-54960000D01*
X42489019Y-55244250D01*
X42406106Y-55517576D01*
X42271464Y-55769474D01*
X42090265Y-55990265D01*
X41869474Y-56171464D01*
X41617576Y-56306106D01*
X41344250Y-56389019D01*
X41173830Y-56405804D01*
X41131226Y-56410000D01*
X40988774Y-56410000D01*
X40946170Y-56405804D01*
X40775750Y-56389019D01*
X40502424Y-56306106D01*
X40250526Y-56171464D01*
X40029735Y-55990265D01*
X39848536Y-55769474D01*
X39713894Y-55517576D01*
X39630981Y-55244250D01*
X39602985Y-54960000D01*
X39630981Y-54675750D01*
X39713894Y-54402424D01*
X39848536Y-54150526D01*
X40029735Y-53929735D01*
X40250526Y-53748536D01*
X40502424Y-53613894D01*
X40775750Y-53530981D01*
X40946170Y-53514196D01*
X40988774Y-53510000D01*
X41131226Y-53510000D01*
X41173830Y-53514196D01*
X41173830Y-53514196D01*
G37*
G36*
X70383830Y-53514196D02*
X70554250Y-53530981D01*
X70827576Y-53613894D01*
X71079474Y-53748536D01*
X71300265Y-53929735D01*
X71481464Y-54150526D01*
X71616106Y-54402424D01*
X71699019Y-54675750D01*
X71727015Y-54960000D01*
X71699019Y-55244250D01*
X71616106Y-55517576D01*
X71481464Y-55769474D01*
X71300265Y-55990265D01*
X71079474Y-56171464D01*
X70827576Y-56306106D01*
X70554250Y-56389019D01*
X70383830Y-56405804D01*
X70341226Y-56410000D01*
X70198774Y-56410000D01*
X70156170Y-56405804D01*
X69985750Y-56389019D01*
X69712424Y-56306106D01*
X69460526Y-56171464D01*
X69239735Y-55990265D01*
X69058536Y-55769474D01*
X68923894Y-55517576D01*
X68840981Y-55244250D01*
X68812985Y-54960000D01*
X68840981Y-54675750D01*
X68923894Y-54402424D01*
X69058536Y-54150526D01*
X69239735Y-53929735D01*
X69460526Y-53748536D01*
X69712424Y-53613894D01*
X69985750Y-53530981D01*
X70156170Y-53514196D01*
X70198774Y-53510000D01*
X70341226Y-53510000D01*
X70383830Y-53514196D01*
X70383830Y-53514196D01*
G37*
G36*
X82583830Y-53514196D02*
X82754250Y-53530981D01*
X83027576Y-53613894D01*
X83279474Y-53748536D01*
X83500265Y-53929735D01*
X83681464Y-54150526D01*
X83816106Y-54402424D01*
X83899019Y-54675750D01*
X83927015Y-54960000D01*
X83899019Y-55244250D01*
X83816106Y-55517576D01*
X83681464Y-55769474D01*
X83500265Y-55990265D01*
X83279474Y-56171464D01*
X83027576Y-56306106D01*
X82754250Y-56389019D01*
X82583830Y-56405804D01*
X82541226Y-56410000D01*
X82398774Y-56410000D01*
X82356170Y-56405804D01*
X82185750Y-56389019D01*
X81912424Y-56306106D01*
X81660526Y-56171464D01*
X81439735Y-55990265D01*
X81258536Y-55769474D01*
X81123894Y-55517576D01*
X81040981Y-55244250D01*
X81012985Y-54960000D01*
X81040981Y-54675750D01*
X81123894Y-54402424D01*
X81258536Y-54150526D01*
X81439735Y-53929735D01*
X81660526Y-53748536D01*
X81912424Y-53613894D01*
X82185750Y-53530981D01*
X82356170Y-53514196D01*
X82398774Y-53510000D01*
X82541226Y-53510000D01*
X82583830Y-53514196D01*
X82583830Y-53514196D01*
G37*
G36*
X95326393Y-47873553D02*
X95435872Y-47895330D01*
X95745252Y-48023479D01*
X96023687Y-48209523D01*
X96260477Y-48446313D01*
X96446521Y-48724748D01*
X96574670Y-49034128D01*
X96640000Y-49362565D01*
X96640000Y-49697435D01*
X96574670Y-50025872D01*
X96446521Y-50335252D01*
X96260477Y-50613687D01*
X96023687Y-50850477D01*
X95745252Y-51036521D01*
X95435872Y-51164670D01*
X95326393Y-51186447D01*
X95107437Y-51230000D01*
X94772563Y-51230000D01*
X94553607Y-51186447D01*
X94444128Y-51164670D01*
X94134748Y-51036521D01*
X93856313Y-50850477D01*
X93619523Y-50613687D01*
X93433479Y-50335252D01*
X93305330Y-50025872D01*
X93240000Y-49697435D01*
X93240000Y-49362565D01*
X93305330Y-49034128D01*
X93433479Y-48724748D01*
X93619523Y-48446313D01*
X93856313Y-48209523D01*
X94134748Y-48023479D01*
X94444128Y-47895330D01*
X94553607Y-47873553D01*
X94772563Y-47830000D01*
X95107437Y-47830000D01*
X95326393Y-47873553D01*
X95326393Y-47873553D01*
G37*
G36*
X41173830Y-43924196D02*
X41344250Y-43940981D01*
X41617576Y-44023894D01*
X41869474Y-44158536D01*
X42090265Y-44339735D01*
X42271464Y-44560526D01*
X42406106Y-44812424D01*
X42489019Y-45085750D01*
X42517015Y-45370000D01*
X42489019Y-45654250D01*
X42406106Y-45927576D01*
X42271464Y-46179474D01*
X42090265Y-46400265D01*
X41869474Y-46581464D01*
X41617576Y-46716106D01*
X41344250Y-46799019D01*
X41173830Y-46815804D01*
X41131226Y-46820000D01*
X40988774Y-46820000D01*
X40946170Y-46815804D01*
X40775750Y-46799019D01*
X40502424Y-46716106D01*
X40250526Y-46581464D01*
X40029735Y-46400265D01*
X39848536Y-46179474D01*
X39713894Y-45927576D01*
X39630981Y-45654250D01*
X39602985Y-45370000D01*
X39630981Y-45085750D01*
X39713894Y-44812424D01*
X39848536Y-44560526D01*
X40029735Y-44339735D01*
X40250526Y-44158536D01*
X40502424Y-44023894D01*
X40775750Y-43940981D01*
X40946170Y-43924196D01*
X40988774Y-43920000D01*
X41131226Y-43920000D01*
X41173830Y-43924196D01*
X41173830Y-43924196D01*
G37*
G36*
X70383830Y-43924196D02*
X70554250Y-43940981D01*
X70827576Y-44023894D01*
X71079474Y-44158536D01*
X71300265Y-44339735D01*
X71481464Y-44560526D01*
X71616106Y-44812424D01*
X71699019Y-45085750D01*
X71727015Y-45370000D01*
X71699019Y-45654250D01*
X71616106Y-45927576D01*
X71481464Y-46179474D01*
X71300265Y-46400265D01*
X71079474Y-46581464D01*
X70827576Y-46716106D01*
X70554250Y-46799019D01*
X70383830Y-46815804D01*
X70341226Y-46820000D01*
X70198774Y-46820000D01*
X70156170Y-46815804D01*
X69985750Y-46799019D01*
X69712424Y-46716106D01*
X69460526Y-46581464D01*
X69239735Y-46400265D01*
X69058536Y-46179474D01*
X68923894Y-45927576D01*
X68840981Y-45654250D01*
X68812985Y-45370000D01*
X68840981Y-45085750D01*
X68923894Y-44812424D01*
X69058536Y-44560526D01*
X69239735Y-44339735D01*
X69460526Y-44158536D01*
X69712424Y-44023894D01*
X69985750Y-43940981D01*
X70156170Y-43924196D01*
X70198774Y-43920000D01*
X70341226Y-43920000D01*
X70383830Y-43924196D01*
X70383830Y-43924196D01*
G37*
G36*
X82583830Y-43924196D02*
X82754250Y-43940981D01*
X83027576Y-44023894D01*
X83279474Y-44158536D01*
X83500265Y-44339735D01*
X83681464Y-44560526D01*
X83816106Y-44812424D01*
X83899019Y-45085750D01*
X83927015Y-45370000D01*
X83899019Y-45654250D01*
X83816106Y-45927576D01*
X83681464Y-46179474D01*
X83500265Y-46400265D01*
X83279474Y-46581464D01*
X83027576Y-46716106D01*
X82754250Y-46799019D01*
X82583830Y-46815804D01*
X82541226Y-46820000D01*
X82398774Y-46820000D01*
X82356170Y-46815804D01*
X82185750Y-46799019D01*
X81912424Y-46716106D01*
X81660526Y-46581464D01*
X81439735Y-46400265D01*
X81258536Y-46179474D01*
X81123894Y-45927576D01*
X81040981Y-45654250D01*
X81012985Y-45370000D01*
X81040981Y-45085750D01*
X81123894Y-44812424D01*
X81258536Y-44560526D01*
X81439735Y-44339735D01*
X81660526Y-44158536D01*
X81912424Y-44023894D01*
X82185750Y-43940981D01*
X82356170Y-43924196D01*
X82398774Y-43920000D01*
X82541226Y-43920000D01*
X82583830Y-43924196D01*
X82583830Y-43924196D01*
G37*
G36*
X53373830Y-43924196D02*
X53544250Y-43940981D01*
X53817576Y-44023894D01*
X54069474Y-44158536D01*
X54290265Y-44339735D01*
X54471464Y-44560526D01*
X54606106Y-44812424D01*
X54689019Y-45085750D01*
X54717015Y-45370000D01*
X54689019Y-45654250D01*
X54606106Y-45927576D01*
X54471464Y-46179474D01*
X54290265Y-46400265D01*
X54069474Y-46581464D01*
X53817576Y-46716106D01*
X53544250Y-46799019D01*
X53373830Y-46815804D01*
X53331226Y-46820000D01*
X53188774Y-46820000D01*
X53146170Y-46815804D01*
X52975750Y-46799019D01*
X52702424Y-46716106D01*
X52450526Y-46581464D01*
X52229735Y-46400265D01*
X52048536Y-46179474D01*
X51913894Y-45927576D01*
X51830981Y-45654250D01*
X51802985Y-45370000D01*
X51830981Y-45085750D01*
X51913894Y-44812424D01*
X52048536Y-44560526D01*
X52229735Y-44339735D01*
X52450526Y-44158536D01*
X52702424Y-44023894D01*
X52975750Y-43940981D01*
X53146170Y-43924196D01*
X53188774Y-43920000D01*
X53331226Y-43920000D01*
X53373830Y-43924196D01*
X53373830Y-43924196D01*
G37*
G36*
X96640000Y-46150000D02*
X93240000Y-46150000D01*
X93240000Y-42750000D01*
X96640000Y-42750000D01*
X96640000Y-46150000D01*
X96640000Y-46150000D01*
G37*
G36*
X12480000Y-42960000D02*
X10380000Y-42960000D01*
X10380000Y-40860000D01*
X12480000Y-40860000D01*
X12480000Y-42960000D01*
X12480000Y-42960000D01*
G37*
G36*
X69720000Y-40820000D02*
X66820000Y-40820000D01*
X66820000Y-37920000D01*
X69720000Y-37920000D01*
X69720000Y-40820000D01*
X69720000Y-40820000D01*
G37*
G36*
X40510000Y-40820000D02*
X37610000Y-40820000D01*
X37610000Y-37920000D01*
X40510000Y-37920000D01*
X40510000Y-40820000D01*
X40510000Y-40820000D01*
G37*
G36*
X11558707Y-38327597D02*
X11635836Y-38335193D01*
X11767787Y-38375220D01*
X11833763Y-38395233D01*
X12016172Y-38492733D01*
X12176054Y-38623946D01*
X12307267Y-38783828D01*
X12404767Y-38966237D01*
X12404767Y-38966238D01*
X12464807Y-39164164D01*
X12485080Y-39370000D01*
X12464807Y-39575836D01*
X12424780Y-39707787D01*
X12404767Y-39773763D01*
X12307267Y-39956172D01*
X12176054Y-40116054D01*
X12016172Y-40247267D01*
X11833763Y-40344767D01*
X11767787Y-40364780D01*
X11635836Y-40404807D01*
X11558707Y-40412404D01*
X11481580Y-40420000D01*
X11378420Y-40420000D01*
X11301293Y-40412404D01*
X11224164Y-40404807D01*
X11092213Y-40364780D01*
X11026237Y-40344767D01*
X10843828Y-40247267D01*
X10683946Y-40116054D01*
X10552733Y-39956172D01*
X10455233Y-39773763D01*
X10435220Y-39707787D01*
X10395193Y-39575836D01*
X10374920Y-39370000D01*
X10395193Y-39164164D01*
X10455233Y-38966238D01*
X10455233Y-38966237D01*
X10552733Y-38783828D01*
X10683946Y-38623946D01*
X10843828Y-38492733D01*
X11026237Y-38395233D01*
X11092213Y-38375220D01*
X11224164Y-38335193D01*
X11301293Y-38327597D01*
X11378420Y-38320000D01*
X11481580Y-38320000D01*
X11558707Y-38327597D01*
X11558707Y-38327597D01*
G37*
G36*
X11558707Y-35787597D02*
X11635836Y-35795193D01*
X11767787Y-35835220D01*
X11833763Y-35855233D01*
X12016172Y-35952733D01*
X12176054Y-36083946D01*
X12307267Y-36243828D01*
X12404767Y-36426237D01*
X12404767Y-36426238D01*
X12464807Y-36624164D01*
X12485080Y-36830000D01*
X12464807Y-37035836D01*
X12424780Y-37167787D01*
X12404767Y-37233763D01*
X12307267Y-37416172D01*
X12176054Y-37576054D01*
X12016172Y-37707267D01*
X11833763Y-37804767D01*
X11767787Y-37824780D01*
X11635836Y-37864807D01*
X11558707Y-37872403D01*
X11481580Y-37880000D01*
X11378420Y-37880000D01*
X11301293Y-37872403D01*
X11224164Y-37864807D01*
X11092213Y-37824780D01*
X11026237Y-37804767D01*
X10843828Y-37707267D01*
X10683946Y-37576054D01*
X10552733Y-37416172D01*
X10455233Y-37233763D01*
X10435220Y-37167787D01*
X10395193Y-37035836D01*
X10374920Y-36830000D01*
X10395193Y-36624164D01*
X10455233Y-36426238D01*
X10455233Y-36426237D01*
X10552733Y-36243828D01*
X10683946Y-36083946D01*
X10843828Y-35952733D01*
X11026237Y-35855233D01*
X11092213Y-35835220D01*
X11224164Y-35795193D01*
X11301293Y-35787597D01*
X11378420Y-35780000D01*
X11481580Y-35780000D01*
X11558707Y-35787597D01*
X11558707Y-35787597D01*
G37*
G36*
X95326393Y-32633553D02*
X95435872Y-32655330D01*
X95745252Y-32783479D01*
X96023687Y-32969523D01*
X96260477Y-33206313D01*
X96446521Y-33484748D01*
X96574670Y-33794128D01*
X96640000Y-34122565D01*
X96640000Y-34457435D01*
X96574670Y-34785872D01*
X96446521Y-35095252D01*
X96260477Y-35373687D01*
X96023687Y-35610477D01*
X95745252Y-35796521D01*
X95435872Y-35924670D01*
X95326393Y-35946447D01*
X95107437Y-35990000D01*
X94772563Y-35990000D01*
X94553607Y-35946447D01*
X94444128Y-35924670D01*
X94134748Y-35796521D01*
X93856313Y-35610477D01*
X93619523Y-35373687D01*
X93433479Y-35095252D01*
X93305330Y-34785872D01*
X93240000Y-34457435D01*
X93240000Y-34122565D01*
X93305330Y-33794128D01*
X93433479Y-33484748D01*
X93619523Y-33206313D01*
X93856313Y-32969523D01*
X94134748Y-32783479D01*
X94444128Y-32655330D01*
X94553607Y-32633553D01*
X94772563Y-32590000D01*
X95107437Y-32590000D01*
X95326393Y-32633553D01*
X95326393Y-32633553D01*
G37*
G36*
X11558707Y-33247597D02*
X11635836Y-33255193D01*
X11767787Y-33295220D01*
X11833763Y-33315233D01*
X12016172Y-33412733D01*
X12176054Y-33543946D01*
X12307267Y-33703828D01*
X12404767Y-33886237D01*
X12404767Y-33886238D01*
X12464807Y-34084164D01*
X12485080Y-34290000D01*
X12464807Y-34495836D01*
X12438833Y-34581462D01*
X12404767Y-34693763D01*
X12307267Y-34876172D01*
X12176054Y-35036054D01*
X12016172Y-35167267D01*
X11833763Y-35264767D01*
X11767787Y-35284780D01*
X11635836Y-35324807D01*
X11558707Y-35332403D01*
X11481580Y-35340000D01*
X11378420Y-35340000D01*
X11301293Y-35332403D01*
X11224164Y-35324807D01*
X11092213Y-35284780D01*
X11026237Y-35264767D01*
X10843828Y-35167267D01*
X10683946Y-35036054D01*
X10552733Y-34876172D01*
X10455233Y-34693763D01*
X10421167Y-34581462D01*
X10395193Y-34495836D01*
X10374920Y-34290000D01*
X10395193Y-34084164D01*
X10455233Y-33886238D01*
X10455233Y-33886237D01*
X10552733Y-33703828D01*
X10683946Y-33543946D01*
X10843828Y-33412733D01*
X11026237Y-33315233D01*
X11092213Y-33295220D01*
X11224164Y-33255193D01*
X11301293Y-33247597D01*
X11378420Y-33240000D01*
X11481580Y-33240000D01*
X11558707Y-33247597D01*
X11558707Y-33247597D01*
G37*
G36*
X82583830Y-31924196D02*
X82754250Y-31940981D01*
X83027576Y-32023894D01*
X83279474Y-32158536D01*
X83500265Y-32339735D01*
X83681464Y-32560526D01*
X83816106Y-32812424D01*
X83899019Y-33085750D01*
X83927015Y-33370000D01*
X83899019Y-33654250D01*
X83816106Y-33927576D01*
X83681464Y-34179474D01*
X83500265Y-34400265D01*
X83279474Y-34581464D01*
X83027576Y-34716106D01*
X82754250Y-34799019D01*
X82583830Y-34815804D01*
X82541226Y-34820000D01*
X82398774Y-34820000D01*
X82356170Y-34815804D01*
X82185750Y-34799019D01*
X81912424Y-34716106D01*
X81660526Y-34581464D01*
X81439735Y-34400265D01*
X81258536Y-34179474D01*
X81123894Y-33927576D01*
X81040981Y-33654250D01*
X81012985Y-33370000D01*
X81040981Y-33085750D01*
X81123894Y-32812424D01*
X81258536Y-32560526D01*
X81439735Y-32339735D01*
X81660526Y-32158536D01*
X81912424Y-32023894D01*
X82185750Y-31940981D01*
X82356170Y-31924196D01*
X82398774Y-31920000D01*
X82541226Y-31920000D01*
X82583830Y-31924196D01*
X82583830Y-31924196D01*
G37*
G36*
X41173830Y-31924196D02*
X41344250Y-31940981D01*
X41617576Y-32023894D01*
X41869474Y-32158536D01*
X42090265Y-32339735D01*
X42271464Y-32560526D01*
X42406106Y-32812424D01*
X42489019Y-33085750D01*
X42517015Y-33370000D01*
X42489019Y-33654250D01*
X42406106Y-33927576D01*
X42271464Y-34179474D01*
X42090265Y-34400265D01*
X41869474Y-34581464D01*
X41617576Y-34716106D01*
X41344250Y-34799019D01*
X41173830Y-34815804D01*
X41131226Y-34820000D01*
X40988774Y-34820000D01*
X40946170Y-34815804D01*
X40775750Y-34799019D01*
X40502424Y-34716106D01*
X40250526Y-34581464D01*
X40029735Y-34400265D01*
X39848536Y-34179474D01*
X39713894Y-33927576D01*
X39630981Y-33654250D01*
X39602985Y-33370000D01*
X39630981Y-33085750D01*
X39713894Y-32812424D01*
X39848536Y-32560526D01*
X40029735Y-32339735D01*
X40250526Y-32158536D01*
X40502424Y-32023894D01*
X40775750Y-31940981D01*
X40946170Y-31924196D01*
X40988774Y-31920000D01*
X41131226Y-31920000D01*
X41173830Y-31924196D01*
X41173830Y-31924196D01*
G37*
G36*
X53373830Y-31924196D02*
X53544250Y-31940981D01*
X53817576Y-32023894D01*
X54069474Y-32158536D01*
X54290265Y-32339735D01*
X54471464Y-32560526D01*
X54606106Y-32812424D01*
X54689019Y-33085750D01*
X54717015Y-33370000D01*
X54689019Y-33654250D01*
X54606106Y-33927576D01*
X54471464Y-34179474D01*
X54290265Y-34400265D01*
X54069474Y-34581464D01*
X53817576Y-34716106D01*
X53544250Y-34799019D01*
X53373830Y-34815804D01*
X53331226Y-34820000D01*
X53188774Y-34820000D01*
X53146170Y-34815804D01*
X52975750Y-34799019D01*
X52702424Y-34716106D01*
X52450526Y-34581464D01*
X52229735Y-34400265D01*
X52048536Y-34179474D01*
X51913894Y-33927576D01*
X51830981Y-33654250D01*
X51802985Y-33370000D01*
X51830981Y-33085750D01*
X51913894Y-32812424D01*
X52048536Y-32560526D01*
X52229735Y-32339735D01*
X52450526Y-32158536D01*
X52702424Y-32023894D01*
X52975750Y-31940981D01*
X53146170Y-31924196D01*
X53188774Y-31920000D01*
X53331226Y-31920000D01*
X53373830Y-31924196D01*
X53373830Y-31924196D01*
G37*
G36*
X70383830Y-31924196D02*
X70554250Y-31940981D01*
X70827576Y-32023894D01*
X71079474Y-32158536D01*
X71300265Y-32339735D01*
X71481464Y-32560526D01*
X71616106Y-32812424D01*
X71699019Y-33085750D01*
X71727015Y-33370000D01*
X71699019Y-33654250D01*
X71616106Y-33927576D01*
X71481464Y-34179474D01*
X71300265Y-34400265D01*
X71079474Y-34581464D01*
X70827576Y-34716106D01*
X70554250Y-34799019D01*
X70383830Y-34815804D01*
X70341226Y-34820000D01*
X70198774Y-34820000D01*
X70156170Y-34815804D01*
X69985750Y-34799019D01*
X69712424Y-34716106D01*
X69460526Y-34581464D01*
X69239735Y-34400265D01*
X69058536Y-34179474D01*
X68923894Y-33927576D01*
X68840981Y-33654250D01*
X68812985Y-33370000D01*
X68840981Y-33085750D01*
X68923894Y-32812424D01*
X69058536Y-32560526D01*
X69239735Y-32339735D01*
X69460526Y-32158536D01*
X69712424Y-32023894D01*
X69985750Y-31940981D01*
X70156170Y-31924196D01*
X70198774Y-31920000D01*
X70341226Y-31920000D01*
X70383830Y-31924196D01*
X70383830Y-31924196D01*
G37*
G36*
X96640000Y-30910000D02*
X93240000Y-30910000D01*
X93240000Y-27510000D01*
X96640000Y-27510000D01*
X96640000Y-30910000D01*
X96640000Y-30910000D01*
G37*
G36*
X70383830Y-22334196D02*
X70554250Y-22350981D01*
X70827576Y-22433894D01*
X71079474Y-22568536D01*
X71300265Y-22749735D01*
X71481464Y-22970526D01*
X71616106Y-23222424D01*
X71699019Y-23495750D01*
X71727015Y-23780000D01*
X71699019Y-24064250D01*
X71616106Y-24337576D01*
X71481464Y-24589474D01*
X71300265Y-24810265D01*
X71079474Y-24991464D01*
X70827576Y-25126106D01*
X70554250Y-25209019D01*
X70383830Y-25225804D01*
X70341226Y-25230000D01*
X70198774Y-25230000D01*
X70156170Y-25225804D01*
X69985750Y-25209019D01*
X69712424Y-25126106D01*
X69460526Y-24991464D01*
X69239735Y-24810265D01*
X69058536Y-24589474D01*
X68923894Y-24337576D01*
X68840981Y-24064250D01*
X68812985Y-23780000D01*
X68840981Y-23495750D01*
X68923894Y-23222424D01*
X69058536Y-22970526D01*
X69239735Y-22749735D01*
X69460526Y-22568536D01*
X69712424Y-22433894D01*
X69985750Y-22350981D01*
X70156170Y-22334196D01*
X70198774Y-22330000D01*
X70341226Y-22330000D01*
X70383830Y-22334196D01*
X70383830Y-22334196D01*
G37*
G36*
X82583830Y-22334196D02*
X82754250Y-22350981D01*
X83027576Y-22433894D01*
X83279474Y-22568536D01*
X83500265Y-22749735D01*
X83681464Y-22970526D01*
X83816106Y-23222424D01*
X83899019Y-23495750D01*
X83927015Y-23780000D01*
X83899019Y-24064250D01*
X83816106Y-24337576D01*
X83681464Y-24589474D01*
X83500265Y-24810265D01*
X83279474Y-24991464D01*
X83027576Y-25126106D01*
X82754250Y-25209019D01*
X82583830Y-25225804D01*
X82541226Y-25230000D01*
X82398774Y-25230000D01*
X82356170Y-25225804D01*
X82185750Y-25209019D01*
X81912424Y-25126106D01*
X81660526Y-24991464D01*
X81439735Y-24810265D01*
X81258536Y-24589474D01*
X81123894Y-24337576D01*
X81040981Y-24064250D01*
X81012985Y-23780000D01*
X81040981Y-23495750D01*
X81123894Y-23222424D01*
X81258536Y-22970526D01*
X81439735Y-22749735D01*
X81660526Y-22568536D01*
X81912424Y-22433894D01*
X82185750Y-22350981D01*
X82356170Y-22334196D01*
X82398774Y-22330000D01*
X82541226Y-22330000D01*
X82583830Y-22334196D01*
X82583830Y-22334196D01*
G37*
G36*
X41173830Y-22334196D02*
X41344250Y-22350981D01*
X41617576Y-22433894D01*
X41869474Y-22568536D01*
X42090265Y-22749735D01*
X42271464Y-22970526D01*
X42406106Y-23222424D01*
X42489019Y-23495750D01*
X42517015Y-23780000D01*
X42489019Y-24064250D01*
X42406106Y-24337576D01*
X42271464Y-24589474D01*
X42090265Y-24810265D01*
X41869474Y-24991464D01*
X41617576Y-25126106D01*
X41344250Y-25209019D01*
X41173830Y-25225804D01*
X41131226Y-25230000D01*
X40988774Y-25230000D01*
X40946170Y-25225804D01*
X40775750Y-25209019D01*
X40502424Y-25126106D01*
X40250526Y-24991464D01*
X40029735Y-24810265D01*
X39848536Y-24589474D01*
X39713894Y-24337576D01*
X39630981Y-24064250D01*
X39602985Y-23780000D01*
X39630981Y-23495750D01*
X39713894Y-23222424D01*
X39848536Y-22970526D01*
X40029735Y-22749735D01*
X40250526Y-22568536D01*
X40502424Y-22433894D01*
X40775750Y-22350981D01*
X40946170Y-22334196D01*
X40988774Y-22330000D01*
X41131226Y-22330000D01*
X41173830Y-22334196D01*
X41173830Y-22334196D01*
G37*
G36*
X53373830Y-22334196D02*
X53544250Y-22350981D01*
X53817576Y-22433894D01*
X54069474Y-22568536D01*
X54290265Y-22749735D01*
X54471464Y-22970526D01*
X54606106Y-23222424D01*
X54689019Y-23495750D01*
X54717015Y-23780000D01*
X54689019Y-24064250D01*
X54606106Y-24337576D01*
X54471464Y-24589474D01*
X54290265Y-24810265D01*
X54069474Y-24991464D01*
X53817576Y-25126106D01*
X53544250Y-25209019D01*
X53373830Y-25225804D01*
X53331226Y-25230000D01*
X53188774Y-25230000D01*
X53146170Y-25225804D01*
X52975750Y-25209019D01*
X52702424Y-25126106D01*
X52450526Y-24991464D01*
X52229735Y-24810265D01*
X52048536Y-24589474D01*
X51913894Y-24337576D01*
X51830981Y-24064250D01*
X51802985Y-23780000D01*
X51830981Y-23495750D01*
X51913894Y-23222424D01*
X52048536Y-22970526D01*
X52229735Y-22749735D01*
X52450526Y-22568536D01*
X52702424Y-22433894D01*
X52975750Y-22350981D01*
X53146170Y-22334196D01*
X53188774Y-22330000D01*
X53331226Y-22330000D01*
X53373830Y-22334196D01*
X53373830Y-22334196D01*
G37*
G36*
X95326393Y-17393553D02*
X95435872Y-17415330D01*
X95745252Y-17543479D01*
X96023687Y-17729523D01*
X96260477Y-17966313D01*
X96446521Y-18244748D01*
X96574670Y-18554128D01*
X96640000Y-18882565D01*
X96640000Y-19217435D01*
X96574670Y-19545872D01*
X96446521Y-19855252D01*
X96260477Y-20133687D01*
X96023687Y-20370477D01*
X95745252Y-20556521D01*
X95435872Y-20684670D01*
X95326393Y-20706447D01*
X95107437Y-20750000D01*
X94772563Y-20750000D01*
X94553607Y-20706447D01*
X94444128Y-20684670D01*
X94134748Y-20556521D01*
X93856313Y-20370477D01*
X93619523Y-20133687D01*
X93433479Y-19855252D01*
X93305330Y-19545872D01*
X93240000Y-19217435D01*
X93240000Y-18882565D01*
X93305330Y-18554128D01*
X93433479Y-18244748D01*
X93619523Y-17966313D01*
X93856313Y-17729523D01*
X94134748Y-17543479D01*
X94444128Y-17415330D01*
X94553607Y-17393553D01*
X94772563Y-17350000D01*
X95107437Y-17350000D01*
X95326393Y-17393553D01*
X95326393Y-17393553D01*
G37*
G36*
X69720000Y-19230000D02*
X66820000Y-19230000D01*
X66820000Y-16330000D01*
X69720000Y-16330000D01*
X69720000Y-19230000D01*
X69720000Y-19230000D01*
G37*
G36*
X40510000Y-19230000D02*
X37610000Y-19230000D01*
X37610000Y-16330000D01*
X40510000Y-16330000D01*
X40510000Y-19230000D01*
X40510000Y-19230000D01*
G37*
G36*
X96640000Y-15670000D02*
X93240000Y-15670000D01*
X93240000Y-12270000D01*
X96640000Y-12270000D01*
X96640000Y-15670000D01*
X96640000Y-15670000D01*
G37*
G36*
X82583830Y-10334196D02*
X82754250Y-10350981D01*
X83027576Y-10433894D01*
X83279474Y-10568536D01*
X83500265Y-10749735D01*
X83681464Y-10970526D01*
X83816106Y-11222424D01*
X83899019Y-11495750D01*
X83927015Y-11780000D01*
X83899019Y-12064250D01*
X83816106Y-12337576D01*
X83681464Y-12589474D01*
X83500265Y-12810265D01*
X83279474Y-12991464D01*
X83027576Y-13126106D01*
X82754250Y-13209019D01*
X82583830Y-13225804D01*
X82541226Y-13230000D01*
X82398774Y-13230000D01*
X82356170Y-13225804D01*
X82185750Y-13209019D01*
X81912424Y-13126106D01*
X81660526Y-12991464D01*
X81439735Y-12810265D01*
X81258536Y-12589474D01*
X81123894Y-12337576D01*
X81040981Y-12064250D01*
X81012985Y-11780000D01*
X81040981Y-11495750D01*
X81123894Y-11222424D01*
X81258536Y-10970526D01*
X81439735Y-10749735D01*
X81660526Y-10568536D01*
X81912424Y-10433894D01*
X82185750Y-10350981D01*
X82356170Y-10334196D01*
X82398774Y-10330000D01*
X82541226Y-10330000D01*
X82583830Y-10334196D01*
X82583830Y-10334196D01*
G37*
G36*
X70383830Y-10334196D02*
X70554250Y-10350981D01*
X70827576Y-10433894D01*
X71079474Y-10568536D01*
X71300265Y-10749735D01*
X71481464Y-10970526D01*
X71616106Y-11222424D01*
X71699019Y-11495750D01*
X71727015Y-11780000D01*
X71699019Y-12064250D01*
X71616106Y-12337576D01*
X71481464Y-12589474D01*
X71300265Y-12810265D01*
X71079474Y-12991464D01*
X70827576Y-13126106D01*
X70554250Y-13209019D01*
X70383830Y-13225804D01*
X70341226Y-13230000D01*
X70198774Y-13230000D01*
X70156170Y-13225804D01*
X69985750Y-13209019D01*
X69712424Y-13126106D01*
X69460526Y-12991464D01*
X69239735Y-12810265D01*
X69058536Y-12589474D01*
X68923894Y-12337576D01*
X68840981Y-12064250D01*
X68812985Y-11780000D01*
X68840981Y-11495750D01*
X68923894Y-11222424D01*
X69058536Y-10970526D01*
X69239735Y-10749735D01*
X69460526Y-10568536D01*
X69712424Y-10433894D01*
X69985750Y-10350981D01*
X70156170Y-10334196D01*
X70198774Y-10330000D01*
X70341226Y-10330000D01*
X70383830Y-10334196D01*
X70383830Y-10334196D01*
G37*
G36*
X41173830Y-10334196D02*
X41344250Y-10350981D01*
X41617576Y-10433894D01*
X41869474Y-10568536D01*
X42090265Y-10749735D01*
X42271464Y-10970526D01*
X42406106Y-11222424D01*
X42489019Y-11495750D01*
X42517015Y-11780000D01*
X42489019Y-12064250D01*
X42406106Y-12337576D01*
X42271464Y-12589474D01*
X42090265Y-12810265D01*
X41869474Y-12991464D01*
X41617576Y-13126106D01*
X41344250Y-13209019D01*
X41173830Y-13225804D01*
X41131226Y-13230000D01*
X40988774Y-13230000D01*
X40946170Y-13225804D01*
X40775750Y-13209019D01*
X40502424Y-13126106D01*
X40250526Y-12991464D01*
X40029735Y-12810265D01*
X39848536Y-12589474D01*
X39713894Y-12337576D01*
X39630981Y-12064250D01*
X39602985Y-11780000D01*
X39630981Y-11495750D01*
X39713894Y-11222424D01*
X39848536Y-10970526D01*
X40029735Y-10749735D01*
X40250526Y-10568536D01*
X40502424Y-10433894D01*
X40775750Y-10350981D01*
X40946170Y-10334196D01*
X40988774Y-10330000D01*
X41131226Y-10330000D01*
X41173830Y-10334196D01*
X41173830Y-10334196D01*
G37*
G36*
X53373830Y-10334196D02*
X53544250Y-10350981D01*
X53817576Y-10433894D01*
X54069474Y-10568536D01*
X54290265Y-10749735D01*
X54471464Y-10970526D01*
X54606106Y-11222424D01*
X54689019Y-11495750D01*
X54717015Y-11780000D01*
X54689019Y-12064250D01*
X54606106Y-12337576D01*
X54471464Y-12589474D01*
X54290265Y-12810265D01*
X54069474Y-12991464D01*
X53817576Y-13126106D01*
X53544250Y-13209019D01*
X53373830Y-13225804D01*
X53331226Y-13230000D01*
X53188774Y-13230000D01*
X53146170Y-13225804D01*
X52975750Y-13209019D01*
X52702424Y-13126106D01*
X52450526Y-12991464D01*
X52229735Y-12810265D01*
X52048536Y-12589474D01*
X51913894Y-12337576D01*
X51830981Y-12064250D01*
X51802985Y-11780000D01*
X51830981Y-11495750D01*
X51913894Y-11222424D01*
X52048536Y-10970526D01*
X52229735Y-10749735D01*
X52450526Y-10568536D01*
X52702424Y-10433894D01*
X52975750Y-10350981D01*
X53146170Y-10334196D01*
X53188774Y-10330000D01*
X53331226Y-10330000D01*
X53373830Y-10334196D01*
X53373830Y-10334196D01*
G37*
G36*
X17908707Y-5307596D02*
X17985836Y-5315193D01*
X18117787Y-5355220D01*
X18183763Y-5375233D01*
X18366172Y-5472733D01*
X18526054Y-5603946D01*
X18657267Y-5763828D01*
X18754767Y-5946237D01*
X18754767Y-5946238D01*
X18814807Y-6144164D01*
X18835080Y-6350000D01*
X18814807Y-6555836D01*
X18774780Y-6687787D01*
X18754767Y-6753763D01*
X18657267Y-6936172D01*
X18526054Y-7096054D01*
X18366172Y-7227267D01*
X18183763Y-7324767D01*
X18117787Y-7344780D01*
X17985836Y-7384807D01*
X17908707Y-7392404D01*
X17831580Y-7400000D01*
X17728420Y-7400000D01*
X17651293Y-7392404D01*
X17574164Y-7384807D01*
X17442213Y-7344780D01*
X17376237Y-7324767D01*
X17193828Y-7227267D01*
X17033946Y-7096054D01*
X16902733Y-6936172D01*
X16805233Y-6753763D01*
X16785220Y-6687787D01*
X16745193Y-6555836D01*
X16724920Y-6350000D01*
X16745193Y-6144164D01*
X16805233Y-5946238D01*
X16805233Y-5946237D01*
X16902733Y-5763828D01*
X17033946Y-5603946D01*
X17193828Y-5472733D01*
X17376237Y-5375233D01*
X17442213Y-5355220D01*
X17574164Y-5315193D01*
X17651293Y-5307596D01*
X17728420Y-5300000D01*
X17831580Y-5300000D01*
X17908707Y-5307596D01*
X17908707Y-5307596D01*
G37*
G36*
X20448707Y-5307596D02*
X20525836Y-5315193D01*
X20657787Y-5355220D01*
X20723763Y-5375233D01*
X20906172Y-5472733D01*
X21066054Y-5603946D01*
X21197267Y-5763828D01*
X21294767Y-5946237D01*
X21294767Y-5946238D01*
X21354807Y-6144164D01*
X21375080Y-6350000D01*
X21354807Y-6555836D01*
X21314780Y-6687787D01*
X21294767Y-6753763D01*
X21197267Y-6936172D01*
X21066054Y-7096054D01*
X20906172Y-7227267D01*
X20723763Y-7324767D01*
X20657787Y-7344780D01*
X20525836Y-7384807D01*
X20448707Y-7392404D01*
X20371580Y-7400000D01*
X20268420Y-7400000D01*
X20191293Y-7392404D01*
X20114164Y-7384807D01*
X19982213Y-7344780D01*
X19916237Y-7324767D01*
X19733828Y-7227267D01*
X19573946Y-7096054D01*
X19442733Y-6936172D01*
X19345233Y-6753763D01*
X19325220Y-6687787D01*
X19285193Y-6555836D01*
X19264920Y-6350000D01*
X19285193Y-6144164D01*
X19345233Y-5946238D01*
X19345233Y-5946237D01*
X19442733Y-5763828D01*
X19573946Y-5603946D01*
X19733828Y-5472733D01*
X19916237Y-5375233D01*
X19982213Y-5355220D01*
X20114164Y-5315193D01*
X20191293Y-5307596D01*
X20268420Y-5300000D01*
X20371580Y-5300000D01*
X20448707Y-5307596D01*
X20448707Y-5307596D01*
G37*
G36*
X15368707Y-5307596D02*
X15445836Y-5315193D01*
X15577787Y-5355220D01*
X15643763Y-5375233D01*
X15826172Y-5472733D01*
X15986054Y-5603946D01*
X16117267Y-5763828D01*
X16214767Y-5946237D01*
X16214767Y-5946238D01*
X16274807Y-6144164D01*
X16295080Y-6350000D01*
X16274807Y-6555836D01*
X16234780Y-6687787D01*
X16214767Y-6753763D01*
X16117267Y-6936172D01*
X15986054Y-7096054D01*
X15826172Y-7227267D01*
X15643763Y-7324767D01*
X15577787Y-7344780D01*
X15445836Y-7384807D01*
X15368707Y-7392404D01*
X15291580Y-7400000D01*
X15188420Y-7400000D01*
X15111293Y-7392404D01*
X15034164Y-7384807D01*
X14902213Y-7344780D01*
X14836237Y-7324767D01*
X14653828Y-7227267D01*
X14493946Y-7096054D01*
X14362733Y-6936172D01*
X14265233Y-6753763D01*
X14245220Y-6687787D01*
X14205193Y-6555836D01*
X14184920Y-6350000D01*
X14205193Y-6144164D01*
X14265233Y-5946238D01*
X14265233Y-5946237D01*
X14362733Y-5763828D01*
X14493946Y-5603946D01*
X14653828Y-5472733D01*
X14836237Y-5375233D01*
X14902213Y-5355220D01*
X15034164Y-5315193D01*
X15111293Y-5307596D01*
X15188420Y-5300000D01*
X15291580Y-5300000D01*
X15368707Y-5307596D01*
X15368707Y-5307596D01*
G37*
G36*
X5344959Y-2672577D02*
X5685470Y-2740309D01*
X6113143Y-2917457D01*
X6498038Y-3174636D01*
X6825364Y-3501962D01*
X7082543Y-3886857D01*
X7259691Y-4314530D01*
X7350000Y-4768545D01*
X7350000Y-5231455D01*
X7259691Y-5685470D01*
X7082543Y-6113143D01*
X6825364Y-6498038D01*
X6498038Y-6825364D01*
X6113143Y-7082543D01*
X5685470Y-7259691D01*
X5358310Y-7324767D01*
X5231456Y-7350000D01*
X4768544Y-7350000D01*
X4641690Y-7324767D01*
X4314530Y-7259691D01*
X3886857Y-7082543D01*
X3501962Y-6825364D01*
X3174636Y-6498038D01*
X2917457Y-6113143D01*
X2740309Y-5685470D01*
X2650000Y-5231455D01*
X2650000Y-4768545D01*
X2740309Y-4314530D01*
X2917457Y-3886857D01*
X3174636Y-3501962D01*
X3501962Y-3174636D01*
X3886857Y-2917457D01*
X4314530Y-2740309D01*
X4655041Y-2672577D01*
X4768544Y-2650000D01*
X5231456Y-2650000D01*
X5344959Y-2672577D01*
X5344959Y-2672577D01*
G37*
G36*
X95344959Y-2672577D02*
X95685470Y-2740309D01*
X96113143Y-2917457D01*
X96498038Y-3174636D01*
X96825364Y-3501962D01*
X97082543Y-3886857D01*
X97259691Y-4314530D01*
X97350000Y-4768545D01*
X97350000Y-5231455D01*
X97259691Y-5685470D01*
X97082543Y-6113143D01*
X96825364Y-6498038D01*
X96498038Y-6825364D01*
X96113143Y-7082543D01*
X95685470Y-7259691D01*
X95358310Y-7324767D01*
X95231456Y-7350000D01*
X94768544Y-7350000D01*
X94641690Y-7324767D01*
X94314530Y-7259691D01*
X93886857Y-7082543D01*
X93501962Y-6825364D01*
X93174636Y-6498038D01*
X92917457Y-6113143D01*
X92740309Y-5685470D01*
X92650000Y-5231455D01*
X92650000Y-4768545D01*
X92740309Y-4314530D01*
X92917457Y-3886857D01*
X93174636Y-3501962D01*
X93501962Y-3174636D01*
X93886857Y-2917457D01*
X94314530Y-2740309D01*
X94655041Y-2672577D01*
X94768544Y-2650000D01*
X95231456Y-2650000D01*
X95344959Y-2672577D01*
X95344959Y-2672577D01*
G37*
G36*
X21370000Y-4860000D02*
X19270000Y-4860000D01*
X19270000Y-2760000D01*
X21370000Y-2760000D01*
X21370000Y-4860000D01*
X21370000Y-4860000D01*
G37*
G36*
X17908707Y-2767597D02*
X17985836Y-2775193D01*
X18117787Y-2815220D01*
X18183763Y-2835233D01*
X18366172Y-2932733D01*
X18526054Y-3063946D01*
X18657267Y-3223828D01*
X18754767Y-3406237D01*
X18754767Y-3406238D01*
X18814807Y-3604164D01*
X18835080Y-3810000D01*
X18814807Y-4015836D01*
X18774780Y-4147787D01*
X18754767Y-4213763D01*
X18657267Y-4396172D01*
X18526054Y-4556054D01*
X18366172Y-4687267D01*
X18183763Y-4784767D01*
X18117787Y-4804780D01*
X17985836Y-4844807D01*
X17908707Y-4852404D01*
X17831580Y-4860000D01*
X17728420Y-4860000D01*
X17651293Y-4852404D01*
X17574164Y-4844807D01*
X17442213Y-4804780D01*
X17376237Y-4784767D01*
X17193828Y-4687267D01*
X17033946Y-4556054D01*
X16902733Y-4396172D01*
X16805233Y-4213763D01*
X16785220Y-4147787D01*
X16745193Y-4015836D01*
X16724920Y-3810000D01*
X16745193Y-3604164D01*
X16805233Y-3406238D01*
X16805233Y-3406237D01*
X16902733Y-3223828D01*
X17033946Y-3063946D01*
X17193828Y-2932733D01*
X17376237Y-2835233D01*
X17442213Y-2815220D01*
X17574164Y-2775193D01*
X17651293Y-2767597D01*
X17728420Y-2760000D01*
X17831580Y-2760000D01*
X17908707Y-2767597D01*
X17908707Y-2767597D01*
G37*
G36*
X15368707Y-2767597D02*
X15445836Y-2775193D01*
X15577787Y-2815220D01*
X15643763Y-2835233D01*
X15826172Y-2932733D01*
X15986054Y-3063946D01*
X16117267Y-3223828D01*
X16214767Y-3406237D01*
X16214767Y-3406238D01*
X16274807Y-3604164D01*
X16295080Y-3810000D01*
X16274807Y-4015836D01*
X16234780Y-4147787D01*
X16214767Y-4213763D01*
X16117267Y-4396172D01*
X15986054Y-4556054D01*
X15826172Y-4687267D01*
X15643763Y-4784767D01*
X15577787Y-4804780D01*
X15445836Y-4844807D01*
X15368707Y-4852404D01*
X15291580Y-4860000D01*
X15188420Y-4860000D01*
X15111293Y-4852404D01*
X15034164Y-4844807D01*
X14902213Y-4804780D01*
X14836237Y-4784767D01*
X14653828Y-4687267D01*
X14493946Y-4556054D01*
X14362733Y-4396172D01*
X14265233Y-4213763D01*
X14245220Y-4147787D01*
X14205193Y-4015836D01*
X14184920Y-3810000D01*
X14205193Y-3604164D01*
X14265233Y-3406238D01*
X14265233Y-3406237D01*
X14362733Y-3223828D01*
X14493946Y-3063946D01*
X14653828Y-2932733D01*
X14836237Y-2835233D01*
X14902213Y-2815220D01*
X15034164Y-2775193D01*
X15111293Y-2767597D01*
X15188420Y-2760000D01*
X15291580Y-2760000D01*
X15368707Y-2767597D01*
X15368707Y-2767597D01*
G37*
M02*
